<svg width="142" height="48" viewBox="0 0 142 48" fill="none" xmlns="http://www.w3.org/2000/svg">
<g clip-path="url(#clip0_69_4311)">
<path opacity="0.3" d="M4.8871 38.4996L4.53084 25.8794C4.51273 25.2186 5.25996 24.8205 5.80038 25.2043L16.1152 32.5252C16.7515 32.9768 16.433 33.9755 15.6525 33.9793L10.1185 34.0026C9.8528 34.0041 9.60523 34.1358 9.45579 34.3548L6.35515 38.9256C5.91737 39.5706 4.90748 39.2771 4.88634 38.4996H4.8871Z" fill="#52A9FF"/>
<path opacity="0.3" d="M9.52751 4.87339L22.1837 4.51814C22.8471 4.50008 23.2457 5.24519 22.8607 5.78408L15.519 16.0696C15.0661 16.704 14.0637 16.3864 14.0607 15.6082L14.0373 10.0899C14.0358 9.82497 13.9037 9.5781 13.6841 9.42908L9.1003 6.33726C8.45345 5.90073 8.74782 4.89371 9.52751 4.87264V4.87339Z" fill="#52A9FF"/>
<path opacity="0.3" d="M43.2489 9.50062L43.6052 22.1208C43.6233 22.7824 42.876 23.1798 42.3349 22.7959L32.02 15.475C31.3837 15.0235 31.7023 14.024 32.4827 14.0209L38.0168 13.9976C38.2824 13.9961 38.53 13.8644 38.6795 13.6454L41.7801 9.07463C42.2179 8.42963 43.2278 8.72315 43.2489 9.50062Z" fill="#52A9FF"/>
<path opacity="0.3" d="M38.6092 43.1259L25.9531 43.4811C25.2904 43.4992 24.8911 42.7541 25.276 42.2145L32.6178 31.929C33.0707 31.2945 34.0722 31.6121 34.076 32.3903L34.0994 37.9086C34.1009 38.1736 34.233 38.4204 34.4527 38.5695L39.0364 41.6613C39.6833 42.0978 39.3889 43.1048 38.6092 43.1259Z" fill="#52A9FF"/>
<path d="M20.7874 47.7772L11.5866 39.1053C11.1043 38.6507 11.3511 37.8432 12.0055 37.7333L24.4904 35.6372C25.2603 35.5077 25.7441 36.4395 25.1946 36.9919L21.2984 40.9101C21.1112 41.0983 21.0297 41.3662 21.0803 41.6259L22.1287 47.0434C22.2774 47.808 21.3543 48.3123 20.7882 47.7779H20.7874V47.7772Z" fill="url(#paint0_linear_69_4311)"/>
<path d="M0.223495 20.7283L8.92008 11.5537C9.37597 11.0728 10.1859 11.3189 10.296 11.9714L12.3981 24.4207C12.5279 25.1884 11.5943 25.6709 11.0395 25.1229L7.11012 21.2378C6.92142 21.0512 6.65272 20.9699 6.39157 21.0203L0.958652 22.0657C0.191794 22.214 -0.313909 21.2935 0.221985 20.7291L0.223495 20.7283Z" fill="url(#paint1_linear_69_4311)"/>
<path d="M27.3494 0.222858L36.5502 8.89471C37.0325 9.3493 36.7857 10.1569 36.1313 10.2668L23.6465 12.3628C22.8766 12.4923 22.3928 11.5613 22.9423 11.0081L26.8385 7.08989C27.0256 6.90173 27.1072 6.63379 27.0566 6.37338L26.0074 0.955923C25.8595 0.191247 26.7818 -0.313018 27.3487 0.221352H27.3494V0.222858Z" fill="url(#paint2_linear_69_4311)"/>
<path d="M47.9134 27.2718L39.2168 36.4464C38.7609 36.9273 37.9511 36.6812 37.8409 36.0287L35.7388 23.5794C35.609 22.8117 36.5434 22.3292 37.0974 22.8771L41.0268 26.7622C41.2155 26.9489 41.4842 27.0302 41.7446 26.9798L47.1775 25.9336C47.9444 25.7861 48.4501 26.7058 47.9142 27.271H47.9134V27.2718Z" fill="url(#paint3_linear_69_4311)"/>
<path d="M30.6396 23.5654C26.1962 22.5652 25.5078 21.8788 24.504 17.448C24.4587 17.2456 24.2775 17.1018 24.0685 17.1018C23.8594 17.1018 23.679 17.2463 23.633 17.448C22.6291 21.8795 21.9415 22.5652 17.4981 23.5654C17.2943 23.6113 17.1501 23.792 17.1501 23.9997C17.1501 24.2074 17.2951 24.3881 17.4981 24.434C21.9423 25.435 22.6291 26.1214 23.633 30.5521C23.679 30.7546 23.8602 30.8991 24.0685 30.8991C24.2768 30.8991 24.4587 30.7546 24.504 30.5521C25.5078 26.1214 26.1962 25.435 30.6396 24.434C30.8426 24.3881 30.9875 24.2082 30.9875 23.9997C30.9875 23.7912 30.8426 23.6113 30.6396 23.5654ZM25.7765 25.4914C25.815 25.5524 25.806 25.6307 25.7554 25.6818C25.7041 25.7323 25.6256 25.7413 25.5644 25.7029C24.236 24.8667 23.9009 24.8667 22.5732 25.7029C22.5121 25.7413 22.4329 25.7323 22.3823 25.6818C22.331 25.6307 22.3219 25.5516 22.3604 25.4914C23.199 24.1675 23.199 23.8326 22.3604 22.5087C22.3219 22.4478 22.331 22.3687 22.3815 22.3183C22.4329 22.2671 22.5121 22.2581 22.5732 22.2972C23.9009 23.1334 24.236 23.1327 25.5644 22.2972C25.6248 22.2581 25.7041 22.2671 25.7554 22.3183C25.806 22.3687 25.815 22.4478 25.7765 22.5087C24.938 23.8326 24.938 24.1675 25.7765 25.4914Z" fill="url(#paint4_linear_69_4311)"/>
<path d="M70.6105 34.3395L69.1561 29.61H60.6738L59.0465 34.3395H53.957L62.1623 11.4158H67.7363L75.8381 34.3395H70.6098H70.6105ZM64.8976 16.5593H64.8629L61.92 25.6737H67.771L64.8976 16.5593Z" fill="url(#paint5_linear_69_4311)"/>
<path d="M77.1182 15.3168V11.1396H81.6189V15.3168H77.1182ZM77.1182 34.3396V17.3534H81.6189V34.3396H77.1182Z" fill="url(#paint6_linear_69_4311)"/>
<path d="M83.5581 34.3395V11.4158H93.7024C98.2031 11.4158 101.077 14.6958 101.077 18.8383C101.077 22.9808 98.2039 26.0191 93.7024 26.0191H88.3706V34.3395H83.5581ZM92.9408 22.1182C95.7108 22.1182 96.8528 20.7025 96.8528 18.7005C96.8528 16.8016 95.7101 15.3859 92.9408 15.3859H88.3706V22.1182H92.9408Z" fill="url(#paint7_linear_69_4311)"/>
<path d="M102.15 42.3837V17.3534H106.478L106.513 19.4246C107.586 17.6981 109.178 16.9041 111.256 16.9041C115.549 16.9041 118.631 20.2871 118.631 26.0185C118.631 31.1627 116.034 34.7874 111.637 34.7874C109.525 34.7874 107.863 33.9241 106.582 32.1291V42.383H102.151L102.15 42.3837ZM114.06 25.7084C114.06 22.67 112.468 20.5641 110.217 20.5641C107.966 20.5641 106.408 22.5669 106.408 25.4322C106.408 29.1261 107.689 30.9557 110.182 30.9557C112.813 30.9557 114.06 29.1953 114.06 25.7084Z" fill="url(#paint8_linear_69_4311)"/>
<path d="M120.257 34.3396V11.1396H124.758V34.3396H120.257Z" fill="url(#paint9_linear_69_4311)"/>
<path d="M137.499 32.0954C136.875 33.6142 135.006 34.5121 132.894 34.5121C129.327 34.5121 126.661 32.0954 126.661 28.3668V17.3535H131.162V27.7105C131.162 29.8164 132.131 30.8866 134.036 30.8866C136.078 30.8866 137.498 29.5402 137.498 27.7105V17.3535H141.999V34.7883C141.999 39.5871 138.536 42.3839 134.174 42.3839C129.188 42.3839 126.661 39.6563 126.661 35.2722H130.85C130.85 37.2742 132.027 38.5176 134.381 38.5176C136.009 38.5176 137.497 37.1019 137.497 34.8583V32.0961L137.499 32.0954Z" fill="url(#paint10_linear_69_4311)"/>
</g>
<defs>
<linearGradient id="paint0_linear_69_4311" x1="14.8669" y1="34.1214" x2="27.8545" y2="46.5821" gradientUnits="userSpaceOnUse">
<stop offset="0.27" stop-color="#52A9FF"/>
<stop offset="0.99" stop-color="#5D29FF"/>
</linearGradient>
<linearGradient id="paint1_linear_69_4311" x1="0.42955" y1="13.1982" x2="14.5696" y2="23.7142" gradientUnits="userSpaceOnUse">
<stop offset="0.27" stop-color="#52A9FF"/>
<stop offset="0.99" stop-color="#5D29FF"/>
</linearGradient>
<linearGradient id="paint2_linear_69_4311" x1="21.8931" y1="3.02642" x2="34.8814" y2="15.4871" gradientUnits="userSpaceOnUse">
<stop offset="0.27" stop-color="#52A9FF"/>
<stop offset="0.99" stop-color="#5D29FF"/>
</linearGradient>
<linearGradient id="paint3_linear_69_4311" x1="35.3297" y1="25.6491" x2="49.4698" y2="36.1651" gradientUnits="userSpaceOnUse">
<stop offset="0.27" stop-color="#52A9FF"/>
<stop offset="0.99" stop-color="#5D29FF"/>
</linearGradient>
<linearGradient id="paint4_linear_69_4311" x1="17.8128" y1="18.7456" x2="32.1017" y2="30.8165" gradientUnits="userSpaceOnUse">
<stop offset="0.27" stop-color="#52A9FF"/>
<stop offset="0.99" stop-color="#5D29FF"/>
</linearGradient>
<linearGradient id="paint5_linear_69_4311" x1="47.5157" y1="18.7231" x2="144.905" y2="49.2446" gradientUnits="userSpaceOnUse">
<stop offset="0.27" stop-color="#52A9FF"/>
<stop offset="0.99" stop-color="#5D29FF"/>
</linearGradient>
<linearGradient id="paint6_linear_69_4311" x1="49.2026" y1="13.3396" x2="146.592" y2="43.8603" gradientUnits="userSpaceOnUse">
<stop offset="0.27" stop-color="#52A9FF"/>
<stop offset="0.99" stop-color="#5D29FF"/>
</linearGradient>
<linearGradient id="paint7_linear_69_4311" x1="50.0451" y1="10.6518" x2="147.434" y2="41.1733" gradientUnits="userSpaceOnUse">
<stop offset="0.27" stop-color="#52A9FF"/>
<stop offset="0.99" stop-color="#5D29FF"/>
</linearGradient>
<linearGradient id="paint8_linear_69_4311" x1="49.7145" y1="11.7064" x2="147.104" y2="42.2271" gradientUnits="userSpaceOnUse">
<stop offset="0.27" stop-color="#52A9FF"/>
<stop offset="0.99" stop-color="#5D29FF"/>
</linearGradient>
<linearGradient id="paint9_linear_69_4311" x1="53.0408" y1="1.09273" x2="150.43" y2="31.6142" gradientUnits="userSpaceOnUse">
<stop offset="0.27" stop-color="#52A9FF"/>
<stop offset="0.99" stop-color="#5D29FF"/>
</linearGradient>
<linearGradient id="paint10_linear_69_4311" x1="52.3155" y1="3.40645" x2="149.705" y2="33.9272" gradientUnits="userSpaceOnUse">
<stop offset="0.27" stop-color="#52A9FF"/>
<stop offset="0.99" stop-color="#5D29FF"/>
</linearGradient>
<clipPath id="clip0_69_4311">
<rect width="142" height="48" fill="white"/>
</clipPath>
</defs>
</svg>
