<svg height="300" viewBox="-2 0 370 370.1248" width="300" xmlns="http://www.w3.org/2000/svg" version="1.1" xmlns:xlink="http://www.w3.org/1999/xlink" xmlns:svgjs="http://svgjs.dev/svgjs"><g width="100%" height="100%" transform="matrix(1,0,0,1,0,0)"><path d="m357.949219 352.613281v-242.125c0-4.09375-2.867188-7.679687-6.910157-8.496093l-62.3125-13.109376v-60.109374c0-4.144532-2.917968-7.679688-6.960937-8.5l-97.28125-20.121094c-.101563 0-.253906-.050782-.359375-.050782-.101562 0-.253906-.0507808-.355469-.0507808-.207031 0-.410156-.0507812-.617187-.0507812-.101563 0-.203125 0-.304688 0-.308594 0-.566406 0-.871094.0507812h-.050781c-.308593.0507808-.617187.0507808-.972656.1523438l-165.480469 34.101563c-.304687.050781-.613281.152343-.871094.203124-.253906.101563-.511718.207032-.765624.308594-.101563.050782-.257813.101563-.359376.152344-.152343.050781-.253906.101562-.410156.207031-.152344.101563-.304687.203125-.460937.304688-.101563.050781-.152344.105469-.253907.15625-.15625.101562-.308593.203125-.460937.355469-.050781.050781-.15625.105468-.207031.15625-.152344.101562-.253906.253906-.410156.355468-.050782.054688-.152344.15625-.203126.207032-.101562.101562-.203124.253906-.308593.359374-.101563.101563-.152344.203126-.253907.253907-.101562.101562-.152343.207031-.257812.308593-.101562.101563-.203125.253907-.253906.359376-.050782.101562-.101563.203124-.15625.253906-.101563.152344-.203125.308594-.253906.460937-.050782.101563-.101563.152344-.101563.257813-.105469.152344-.15625.304687-.257813.511718-.050781.101563-.050781.203126-.101562.304688-.050781.15625-.101562.308594-.152344.511719-.050781.15625-.105468.308593-.105468.460937-.050782.105469-.050782.207032-.101563.359375-.101563.5625-.152344 1.179688-.152344 1.792969v309.8125c-4.710937.101562-8.550781 3.941406-8.550781 8.703125 0 4.8125 3.890625 8.703125 8.703125 8.703125h349.132813c4.8125 0 8.703124-3.890625 8.703124-8.703125-.101562-4.863281-3.890624-8.703125-8.652343-8.808594zm-17.40625-235.058593v28.980468l-23.449219-4.914062c-3.890625-.820313-7.679688 1.6875-8.5 5.527344-.820312 3.890624 1.6875 7.679687 5.53125 8.5l26.367188 5.527343v30.515625l-23.449219-4.914062c-3.890625-.820313-7.679688 1.691406-8.5 5.53125-.820313 3.890625 1.6875 7.679687 5.527343 8.496094l26.371094 5.53125v30.515624l-23.449218-4.914062c-3.894532-.820312-7.683594 1.6875-8.5 5.527344-.820313 3.890625 1.6875 7.679687 5.527343 8.5l26.371094 5.53125v30.511718l-23.453125-4.914062c-3.890625-.820312-7.679688 1.691406-8.496094 5.53125-.820312 3.890625 1.6875 7.679688 5.527344 8.5l26.367188 5.527344v56.011718h-51.609376v-245.964843zm-69.222657-52.785157-38.503906-7.9375c-3.890625-.820312-7.679687 1.691407-8.445312 5.582031-.820313 3.890626 1.6875 7.679688 5.578125 8.445313l41.421875 8.550781v16.488282.050781 13.976562l-38.554688-7.933593c-3.890625-.820313-7.679687 1.6875-8.445312 5.578124-.820313 3.890626 1.6875 7.679688 5.578125 8.449219l41.421875 8.550781v30.925782l-38.449219-8.347656c-3.894531-.820313-7.683594 1.640624-8.5 5.480468-.820313 3.890625 1.636719 7.679688 5.476563 8.496094l41.472656 8.960938v30.464843l-38.449219-8.347656c-3.894531-.816406-7.683594 1.640625-8.5 5.480469-.820313 3.890625 1.636719 7.679687 5.476563 8.5l41.472656 8.957031v30.464844l-38.449219-8.34375c-3.894531-.820313-7.683594 1.636719-8.5 5.476562-.820313 3.890625 1.636719 7.679688 5.476563 8.5l41.472656 8.960938v30.566406l-38.503906-7.9375c-3.890626-.820313-7.679688 1.691406-8.445313 5.582031-.820313 3.890625 1.6875 7.679688 5.578125 8.449219l41.421875 8.546875v46.953125h-79.972656v-333.003906l79.921875 16.484375v28.929687zm-97.28125 118.988281-148.121093 30.976563v-30.515625l148.121093-30.976562zm0-45.160156-148.121093 30.976563v-30.515625l148.121093-30.925782zm-148.121093 90.777344 148.121093-30.976562v30.515624l-148.121093 30.976563zm148.121093-135.882812-148.121093 30.976562v-30.976562l148.121093-30.515626zm-148.121093 181.042968 148.121093-30.976562v30.515625l-148.121093 30.976562zm148.121093-226.253906-148.121093 30.515625v-28.929687l148.121093-30.511719zm-148.121093 271.410156 148.121093-30.972656v63.894531h-148.121093zm0 0" fill="#ffffff" fill-opacity="1" data-original-color="#000000ff" stroke="none" stroke-opacity="1"/></g></svg>