<svg width="32" height="32" viewBox="0 0 32 32" fill="none" xmlns="http://www.w3.org/2000/svg">
<path d="M30.1158 19.0749C29.4869 18.0965 28.8579 17.1531 28.2289 16.1747C28.0892 15.965 28.0892 15.8253 28.2289 15.6156C28.8579 14.6722 29.4519 13.7287 30.0809 12.7853C30.8147 11.6671 30.4303 10.5839 29.1724 10.1296C28.1241 9.74527 27.0758 9.32596 26.0275 8.9416C25.8179 8.87172 25.7131 8.73194 25.7131 8.48735C25.6781 7.33424 25.6082 6.18114 25.5383 5.06298C25.4685 3.83999 24.525 3.14114 23.337 3.45562C22.2188 3.73516 21.1007 4.04964 20.0174 4.36413C19.7728 4.43401 19.6331 4.36413 19.4583 4.18942C18.7595 3.28091 18.0257 2.40734 17.3269 1.53378C16.5581 0.55539 15.3701 0.55539 14.5664 1.53378C13.8675 2.40734 13.1337 3.28091 12.4698 4.15447C12.2951 4.39907 12.1204 4.43401 11.8409 4.36413C10.7577 4.04965 9.67444 3.77011 8.90571 3.56045C7.40318 3.21102 6.49468 3.80505 6.42479 5.06298C6.3549 6.21608 6.28502 7.36919 6.25007 8.55723C6.25007 8.80183 6.14524 8.90666 5.93559 9.01149C4.85237 9.43079 3.76916 9.8501 2.68594 10.2694C1.56778 10.7237 1.21835 11.8069 1.88226 12.8202C2.51122 13.7986 3.14019 14.7421 3.76915 15.7204C3.90892 15.9301 3.90892 16.0699 3.76915 16.3145C3.10525 17.2929 2.47628 18.2713 1.84731 19.2846C1.25329 20.228 1.63766 21.3462 2.68593 21.7655C3.76915 22.1848 4.88731 22.6041 5.97053 23.0234C6.21512 23.0933 6.28501 23.2331 6.28501 23.4777C6.31995 24.5959 6.45972 25.6791 6.45972 26.7972C6.45972 27.9154 7.43811 28.9287 8.80087 28.5094C9.88409 28.16 10.9673 27.9154 12.0505 27.6009C12.2602 27.531 12.3999 27.566 12.5397 27.7756C13.2735 28.6841 13.9724 29.5577 14.7062 30.4662C15.5098 31.4446 16.6629 31.4446 17.4317 30.4662C18.1655 29.5577 18.8643 28.6841 19.5981 27.7756C19.7379 27.6009 19.8427 27.531 20.0873 27.6009C21.2055 27.9154 22.3236 28.1949 23.4418 28.5094C24.5949 28.8239 25.5733 28.125 25.6082 26.937C25.6781 25.7839 25.748 24.6308 25.7829 23.4427C25.7829 23.1632 25.9227 23.0584 26.1324 22.9885C27.1806 22.6041 28.2639 22.1848 29.3121 21.7655C30.4303 21.2064 30.7797 20.0883 30.1158 19.0749ZM21.7646 13.3444L14.7761 20.3329C14.6013 20.5076 14.3567 20.6473 14.1121 20.6823C14.0423 20.6823 13.9374 20.7172 13.8675 20.7172C13.5531 20.7172 13.2036 20.5775 12.959 20.3329L10.0938 17.4676C9.60456 16.9784 9.60456 16.1747 10.0938 15.6855C10.5829 15.1963 11.3866 15.1963 11.8758 15.6855L13.8326 17.6423L19.9126 11.5623C20.4018 11.0731 21.2055 11.0731 21.6947 11.5623C22.2538 12.0515 22.2538 12.8552 21.7646 13.3444Z" fill="#09B285"/>
</svg>
