<svg width="20" height="21" viewBox="0 0 20 21" fill="none" xmlns="http://www.w3.org/2000/svg">
<path d="M8.95245 4.50401C9.29113 4.45393 9.64051 4.42707 10.0003 4.42707C14.2545 4.42707 17.0461 8.18111 17.9839 9.66609C18.0974 9.84582 18.1542 9.93569 18.1859 10.0743C18.2098 10.1784 18.2098 10.3426 18.1859 10.4467C18.1541 10.5853 18.097 10.6758 17.9827 10.8567C17.7328 11.2522 17.3518 11.808 16.8471 12.4108M5.6036 5.85627C3.80187 7.07849 2.57871 8.77655 2.01759 9.66481C1.90357 9.8453 1.84656 9.93554 1.81478 10.0741C1.79091 10.1782 1.7909 10.3424 1.81476 10.4465C1.84652 10.5851 1.90328 10.675 2.01678 10.8547C2.95462 12.3397 5.74618 16.0937 10.0003 16.0937C11.7157 16.0937 13.1932 15.4834 14.4073 14.6576M2.50035 2.76041L17.5003 17.7604M8.23258 8.49264C7.78017 8.94505 7.50035 9.57005 7.50035 10.2604C7.50035 11.6411 8.61963 12.7604 10.0003 12.7604C10.6907 12.7604 11.3157 12.4806 11.7681 12.0282" stroke="#CECFD2" stroke-width="1.66667" stroke-linecap="round" stroke-linejoin="round"/>
</svg>
