<svg width="24" height="25" viewBox="0 0 24 25" fill="none" xmlns="http://www.w3.org/2000/svg">
<path d="M14.9997 19.5C14.9997 21.1569 13.6566 22.5 11.9997 22.5C10.3429 22.5 8.99972 21.1569 8.99972 19.5M13.7962 6.73856C14.2317 6.28864 14.4997 5.67562 14.4997 5C14.4997 3.61929 13.3804 2.5 11.9997 2.5C10.619 2.5 9.49972 3.61929 9.49972 5C9.49972 5.67562 9.76772 6.28864 10.2032 6.73856M17.9997 11.7C17.9997 10.3209 17.3676 8.99823 16.2424 8.02304C15.1171 7.04786 13.591 6.5 11.9997 6.5C10.4084 6.5 8.8823 7.04786 7.75708 8.02304C6.63186 8.99823 5.99972 10.3209 5.99972 11.7C5.99972 13.9818 5.43385 15.6506 4.72778 16.8447C3.92306 18.2056 3.5207 18.8861 3.53659 19.0486C3.55476 19.2346 3.58824 19.2933 3.73906 19.4036C3.87089 19.5 4.53323 19.5 5.85791 19.5H18.1415C19.4662 19.5 20.1286 19.5 20.2604 19.4036C20.4112 19.2933 20.4447 19.2346 20.4629 19.0486C20.4787 18.8861 20.0764 18.2056 19.2717 16.8447C18.5656 15.6506 17.9997 13.9818 17.9997 11.7Z" stroke="white" stroke-width="2" stroke-linecap="round" stroke-linejoin="round"/>
</svg>
