<svg width="21" height="20" viewBox="0 0 21 20" fill="none" xmlns="http://www.w3.org/2000/svg">
<g clip-path="url(#clip0_909_45258)">
<path d="M9.87037 1.60996C10.0412 1.19932 10.6229 1.19932 10.7937 1.60996L12.8598 6.57744C12.9318 6.75056 13.0946 6.86885 13.2815 6.88383L18.6443 7.31376C19.0876 7.3493 19.2674 7.90256 18.9296 8.19189L14.8437 11.6919C14.7013 11.8139 14.6391 12.0053 14.6826 12.1876L15.931 17.4208C16.0341 17.8534 15.5635 18.1954 15.184 17.9635L10.5927 15.1592C10.4327 15.0615 10.2314 15.0615 10.0714 15.1592L5.48009 17.9635C5.10054 18.1954 4.62991 17.8534 4.73311 17.4208L5.98142 12.1876C6.02492 12.0053 5.96273 11.8139 5.82034 11.6919L1.73444 8.19189C1.39668 7.90256 1.57644 7.3493 2.01977 7.31376L7.38258 6.88383C7.56947 6.86885 7.73228 6.75056 7.80428 6.57744L9.87037 1.60996Z" fill="#1F242F"/>
<g clip-path="url(#clip1_909_45258)">
<path d="M9.87037 1.60996C10.0412 1.19932 10.6229 1.19932 10.7937 1.60996L12.8598 6.57744C12.9318 6.75056 13.0946 6.86885 13.2815 6.88383L18.6443 7.31376C19.0876 7.3493 19.2674 7.90256 18.9296 8.19189L14.8437 11.6919C14.7013 11.8139 14.6391 12.0053 14.6826 12.1876L15.931 17.4208C16.0341 17.8534 15.5635 18.1954 15.184 17.9635L10.5927 15.1592C10.4327 15.0615 10.2314 15.0615 10.0714 15.1592L5.48009 17.9635C5.10054 18.1954 4.62991 17.8534 4.73311 17.4208L5.98142 12.1876C6.02492 12.0053 5.96273 11.8139 5.82034 11.6919L1.73444 8.19189C1.39668 7.90256 1.57644 7.3493 2.01977 7.31376L7.38258 6.88383C7.56947 6.86885 7.73228 6.75056 7.80428 6.57744L9.87037 1.60996Z" fill="#FDB022"/>
</g>
</g>
<defs>
<clipPath id="clip0_909_45258">
<rect width="20" height="20" fill="white" transform="translate(0.332031)"/>
</clipPath>
<clipPath id="clip1_909_45258">
<rect width="20" height="20" fill="white" transform="translate(0.332031)"/>
</clipPath>
</defs>
</svg>
