<svg width="562" height="366" viewBox="0 0 562 366" fill="none" xmlns="http://www.w3.org/2000/svg">
<path d="M475.996 324.68V277.491H344.119V223.981L439.762 21.32H505.49L409.847 223.981H475.996V148.141H534.14V223.981H561.106V277.491H534.14V324.68H475.996Z" fill="white"/>
<g filter="url(#filter0_d_948_3010)">
<path d="M288.053 331C265.582 331 245.919 326.295 229.066 316.885C212.213 307.476 199.081 294.344 189.671 277.491C180.262 260.637 175.557 240.975 175.557 218.504V127.496C175.557 105.025 180.262 85.3627 189.671 68.5093C199.081 51.656 212.213 38.5244 229.066 29.1146C245.919 19.7049 265.582 15 288.053 15C310.524 15 330.186 19.7049 347.039 29.1146C363.893 38.5244 377.024 51.656 386.434 68.5093C395.844 85.3627 400.549 105.025 400.549 127.496V218.504C400.549 240.975 395.844 260.637 386.434 277.491C377.024 294.344 363.893 307.476 347.039 316.885C330.186 326.295 310.524 331 288.053 331ZM288.053 276.648C298.165 276.648 307.294 274.26 315.439 269.485C323.585 264.71 330.046 258.25 334.821 250.104C339.596 241.958 341.983 232.829 341.983 222.717V122.861C341.983 112.749 339.596 103.62 334.821 95.4747C330.046 87.3289 323.585 80.8684 315.439 76.0933C307.294 71.3182 298.165 68.9306 288.053 68.9306C277.941 68.9306 268.812 71.3182 260.666 76.0933C252.52 80.8684 246.06 87.3289 241.285 95.4747C236.51 103.62 234.122 112.749 234.122 122.861V222.717C234.122 232.829 236.51 241.958 241.285 250.104C246.06 258.25 252.52 264.71 260.666 269.485C268.812 274.26 277.941 276.648 288.053 276.648Z" fill="white"/>
</g>
<g filter="url(#filter1_d_948_3010)">
<path d="M146.877 324.68V277.491H15V223.981L110.643 21.32H176.371L80.728 223.981H146.877V148.141H205.021V223.981H231.987V277.491H205.021V324.68H146.877Z" fill="white"/>
</g>
<defs>
<filter id="filter0_d_948_3010" x="160.557" y="0" width="274.992" height="366" filterUnits="userSpaceOnUse" color-interpolation-filters="sRGB">
<feFlood flood-opacity="0" result="BackgroundImageFix"/>
<feColorMatrix in="SourceAlpha" type="matrix" values="0 0 0 0 0 0 0 0 0 0 0 0 0 0 0 0 0 0 127 0" result="hardAlpha"/>
<feOffset dx="10" dy="10"/>
<feGaussianBlur stdDeviation="12.5"/>
<feComposite in2="hardAlpha" operator="out"/>
<feColorMatrix type="matrix" values="0 0 0 0 0 0 0 0 0 0 0 0 0 0 0 0 0 0 0.55 0"/>
<feBlend mode="normal" in2="BackgroundImageFix" result="effect1_dropShadow_948_3010"/>
<feBlend mode="normal" in="SourceGraphic" in2="effect1_dropShadow_948_3010" result="shape"/>
</filter>
<filter id="filter1_d_948_3010" x="0" y="6.32004" width="266.986" height="353.36" filterUnits="userSpaceOnUse" color-interpolation-filters="sRGB">
<feFlood flood-opacity="0" result="BackgroundImageFix"/>
<feColorMatrix in="SourceAlpha" type="matrix" values="0 0 0 0 0 0 0 0 0 0 0 0 0 0 0 0 0 0 127 0" result="hardAlpha"/>
<feOffset dx="10" dy="10"/>
<feGaussianBlur stdDeviation="12.5"/>
<feComposite in2="hardAlpha" operator="out"/>
<feColorMatrix type="matrix" values="0 0 0 0 0 0 0 0 0 0 0 0 0 0 0 0 0 0 0.55 0"/>
<feBlend mode="normal" in2="BackgroundImageFix" result="effect1_dropShadow_948_3010"/>
<feBlend mode="normal" in="SourceGraphic" in2="effect1_dropShadow_948_3010" result="shape"/>
</filter>
</defs>
</svg>
