<svg width="40" height="40" viewBox="0 0 40 40" fill="none" xmlns="http://www.w3.org/2000/svg">
<g clip-path="url(#clip0_912_2889)">
<path d="M28.4583 15.5066H20.3625L25.1814 6.65027H17.9209L11.543 21.0323H18.949L17.1499 31.6771L28.4583 15.5066Z" fill="#AE94FF"/>
<path d="M34.1422 5.85781C30.3646 2.08039 25.3422 0 20 0C14.6578 0 9.63539 2.08039 5.85781 5.85781C2.08039 9.63539 0 14.6578 0 20C0 25.3422 2.08039 30.3646 5.85781 34.1422C9.63539 37.9196 14.6578 40 20 40C22.1812 40 24.3262 39.6508 26.3754 38.962L25.6287 36.7404C23.8206 37.3481 21.9268 37.6562 20 37.6562C10.2643 37.6562 2.34375 29.7357 2.34375 20C2.34375 10.2643 10.2643 2.34375 20 2.34375C29.7357 2.34375 37.6562 10.2643 37.6562 20C37.6562 22.3385 37.2067 24.6098 36.3202 26.7505L38.4855 27.6473C39.4905 25.2207 40 22.6478 40 20C40 14.6578 37.9196 9.63539 34.1422 5.85781Z" fill="#AE94FF"/>
<path d="M33.7937 25.1997L31.8022 25.2017L27.7539 35.8311L29.9441 36.6653L30.9066 34.1381H34.6619L35.6148 36.6632L37.8076 35.8357L33.7937 25.1997ZM31.7992 31.7945L32.7928 29.1857L33.7773 31.7945H31.7992Z" fill="#AE94FF"/>
</g>
<defs>
<clipPath id="clip0_912_2889">
<rect width="40" height="40" fill="white"/>
</clipPath>
</defs>
</svg>
