<svg width="40" height="40" viewBox="0 0 40 40" fill="none" xmlns="http://www.w3.org/2000/svg">
<g clip-path="url(#clip0_947_2890)">
<path d="M35.2381 19.0476H32.381V11.4286C32.381 9.32384 30.6763 7.61902 28.5714 7.61902H20.9524V4.76188C20.9524 2.1333 18.819 0 16.1904 0C13.5619 0 11.4286 2.1333 11.4286 4.76188V7.61902H3.80955C1.70482 7.61902 0.0191071 9.32375 0.0191071 11.4286L0.00955357 18.6667H2.85714C5.69527 18.6667 8 20.9714 8 23.8096C8 26.6477 5.69527 28.9524 2.85714 28.9524H0.00955357L0 36.1904C0 38.2953 1.70473 40 3.80955 40H11.0477V37.1429C11.0477 34.3047 13.3524 32 16.1905 32C19.0287 32 21.3334 34.3047 21.3334 37.1429V40H28.5714C30.6762 40 32.381 38.2953 32.381 36.1904V28.5714H35.2381C37.8667 28.5714 40 26.4381 40 23.8096C40 21.181 37.8667 19.0476 35.2381 19.0476Z" fill="#AE94FF"/>
</g>
<defs>
<clipPath id="clip0_947_2890">
<rect width="40" height="40" fill="white"/>
</clipPath>
</defs>
</svg>
