<svg width="40" height="40" viewBox="0 0 40 40" fill="none" xmlns="http://www.w3.org/2000/svg">
<path d="M36.3184 5.02087H13.722C11.6923 5.02087 10.041 6.6722 10.041 8.70439C10.041 10.7341 11.6923 12.3854 13.722 12.3854H36.3183C38.348 12.3854 39.9993 10.7341 39.9993 8.70439C39.9994 6.67212 38.348 5.02087 36.3184 5.02087Z" fill="#AE94FF"/>
<path d="M3.68234 5.02087C1.65195 5.02087 0 6.67275 0 8.70314C0 10.7335 1.65195 12.3854 3.68234 12.3854C5.71273 12.3854 7.36461 10.7335 7.36461 8.70314C7.36461 6.67275 5.71273 5.02087 3.68234 5.02087Z" fill="#AE94FF"/>
<path d="M3.68234 16.3177C1.65195 16.3177 0 17.9696 0 20C0 22.0304 1.65195 23.6823 3.68234 23.6823C5.71273 23.6823 7.36461 22.0304 7.36461 20C7.36461 17.9696 5.71273 16.3177 3.68234 16.3177Z" fill="#AE94FF"/>
<path d="M3.68234 27.6146C1.65195 27.6146 0 29.2665 0 31.2969C0 33.3273 1.65195 34.9792 3.68234 34.9792C5.71273 34.9792 7.36461 33.3273 7.36461 31.2969C7.36461 29.2665 5.71273 27.6146 3.68234 27.6146Z" fill="#AE94FF"/>
<path d="M36.3184 16.3177H13.722C11.6923 16.3177 10.041 17.9691 10.041 20.0013C10.041 22.031 11.6923 23.6823 13.722 23.6823H36.3183C38.348 23.6823 39.9993 22.031 39.9993 20.0013C39.9994 17.969 38.348 16.3177 36.3184 16.3177Z" fill="#AE94FF"/>
<path d="M36.3184 27.6146H13.722C11.6923 27.6146 10.041 29.266 10.041 31.2981C10.041 33.3278 11.6923 34.9792 13.722 34.9792H36.3183C38.348 34.9792 39.9993 33.3278 39.9993 31.2981C39.9994 29.266 38.348 27.6146 36.3184 27.6146Z" fill="#AE94FF"/>
</svg>
