<svg width="40" height="40" viewBox="0 0 40 40" fill="none" xmlns="http://www.w3.org/2000/svg">
<g clip-path="url(#clip0_947_2879)">
<path d="M8.81883 33.5373C7.20312 33.5373 5.88867 32.2229 5.88867 30.6072C5.88867 28.9915 7.20312 27.6771 8.81883 27.6771H20.0325C22.9405 27.6771 25.3064 25.3113 25.3064 22.4032C25.3064 19.4952 22.9405 17.1294 20.0325 17.1294H12.1242V19.4731H20.0325C21.6482 19.4731 22.9627 20.7876 22.9627 22.4033C22.9627 24.019 21.6482 25.3334 20.0325 25.3334H8.81883C5.91078 25.3334 3.54492 27.6992 3.54492 30.6072C3.54492 33.5152 5.91078 35.881 8.81883 35.881H27.8747V33.5373H8.81883Z" fill="#AE94FF"/>
<path d="M10.8571 5.98171C8.37336 3.49796 4.34648 3.49796 1.86281 5.98171C-0.620937 8.46546 -0.620937 12.4923 1.86281 14.976L6.36 19.4732L10.8571 14.976C13.3409 12.4923 13.3409 8.46538 10.8571 5.98171ZM6.32234 12.4033C5.23102 12.4033 4.34633 11.5186 4.34633 10.4273C4.34633 9.33593 5.23102 8.45116 6.32234 8.45116C7.41367 8.45116 8.29844 9.33585 8.29844 10.4273C8.29844 11.5186 7.41375 12.4033 6.32234 12.4033Z" fill="#AE94FF"/>
<path d="M38.1364 22.3897C35.6527 19.9059 31.6258 19.9059 29.1421 22.3897C26.6584 24.8734 26.6584 28.9003 29.1421 31.384L33.6393 35.8812L38.1365 31.384C40.6202 28.9003 40.6202 24.8734 38.1364 22.3897ZM33.6016 28.8113C32.5103 28.8113 31.6256 27.9266 31.6256 26.8353C31.6256 25.744 32.5103 24.8592 33.6016 24.8592C34.693 24.8592 35.5777 25.7439 35.5777 26.8353C35.5777 27.9266 34.693 28.8113 33.6016 28.8113Z" fill="#AE94FF"/>
</g>
<defs>
<clipPath id="clip0_947_2879">
<rect width="40" height="40" fill="white"/>
</clipPath>
</defs>
</svg>
