<svg width="64" height="64" viewBox="0 0 64 64" fill="none" xmlns="http://www.w3.org/2000/svg">
<path d="M13.7934 10.241H3.13747C1.77012 10.241 1.08535 11.8941 2.05221 12.861L21.1911 31.9999L2.05221 51.1389C1.08535 52.1057 1.77012 53.7589 3.13747 53.7589H13.7934C14.2004 53.7589 14.5908 53.5972 14.8787 53.3094L35.1029 33.0852C35.7022 32.4858 35.7022 31.5141 35.1029 30.9147L14.8787 10.6905C14.5908 10.4027 14.2005 10.241 13.7934 10.241Z" fill="#AE94FF"/>
<path d="M40.6411 10.241H29.9851C28.6178 10.241 27.933 11.8941 28.8999 12.861L48.0388 31.9999L28.8999 51.1389C27.933 52.1057 28.6178 53.7589 29.9851 53.7589H40.6411C41.0481 53.7589 41.4385 53.5972 41.7263 53.3094L61.9505 33.0852C62.5499 32.4858 62.5499 31.5141 61.9505 30.9147L41.7263 10.6905C41.4385 10.4027 41.0481 10.241 40.6411 10.241Z" fill="#AE94FF"/>
</svg>
