<svg width="64" height="64" viewBox="0 0 64 64" fill="none" xmlns="http://www.w3.org/2000/svg">
<path d="M13.7988 33.3C13.7988 43.4 21.9988 51.5 31.9988 51.5C41.9988 51.5 50.1988 43.3 50.1988 33.3C50.1988 23.2 42.0988 15 31.9988 15C21.8988 15 13.7988 23.2 13.7988 33.3ZM29.9988 32.3C29.9988 29.1 29.9988 25.9 29.9988 22.6C29.9988 21.5 30.8988 20.6 31.9988 20.6C33.0988 20.6 33.9988 21.6 33.9988 22.6V24V31.7H39.7988C40.8988 31.7 41.7988 32.6 41.7988 33.7C41.7988 34.8 40.7988 35.7 39.7988 35.7C37.1988 35.7 34.5988 35.7 31.9988 35.7C30.8988 35.7 29.9988 34.8 29.9988 33.7C29.9988 33.2 29.9988 32.8 29.9988 32.3Z" fill="#AE94FF"/>
<path d="M56.4996 25.5C53.4996 16 45.0996 9.20005 35.2996 7.80005C35.3996 7.50005 35.4996 7.20005 35.4996 7.00005C35.4996 6.20005 34.9996 5.50005 34.3996 5.20005C33.5996 4.80005 32.7996 5.00005 32.0996 5.60005C31.3996 6.20005 30.6996 6.80005 29.9996 7.40005C29.6996 7.70005 29.2996 7.90005 29.0996 8.20005C28.8996 8.50005 28.7996 8.90005 28.7996 9.30005C28.7996 10.2 29.3996 10.7 29.8996 11.4C30.4996 12.1 31.0996 12.9 31.7996 13.6C32.8996 14.9 35.1996 13.9 35.1996 12.3V12.2C35.1996 12.1 35.1996 12 35.1996 11.9C42.2996 13 48.5996 17.5 51.7996 24.1C55.3996 31.6 54.1996 41 48.7996 47.3C43.3996 53.7 34.6996 56.5 26.5996 54.4C18.5996 52.3 12.4996 45.7 10.8996 37.7C8.79958 27.7 14.3996 17.7 23.4996 13.5C24.4996 13.1 24.6996 11.6 24.1996 10.8C23.5996 9.80005 22.4996 9.60005 21.4996 10.1C11.9996 14.4 5.89958 24.4 6.49958 34.9C7.09958 44.8 13.2996 53.5 22.3996 57.3C31.5996 61.1 42.3996 59.1 49.5996 52.4C56.6996 45.5 59.4996 34.9 56.4996 25.5Z" fill="#AE94FF"/>
</svg>
