<svg width="64" height="64" viewBox="0 0 64 64" fill="none" xmlns="http://www.w3.org/2000/svg">
<path d="M58 27V35C58 35.552 57.552 36 57 36H49C48.448 36 48 35.552 48 35V27C48 26.448 48.448 26 49 26H57C57.552 26 58 26.448 58 27Z" fill="#AE94FF"/>
<path d="M58 51V59C58 59.552 57.552 60 57 60H49C48.448 60 48 59.552 48 59V51C48 50.448 48.448 50 49 50H57C57.552 50 58 50.448 58 51Z" fill="#AE94FF"/>
<path d="M46 51V59C46 59.552 45.552 60 45 60H37C36.448 60 36 59.552 36 59V51C36 50.448 36.448 50 37 50H45C45.552 50 46 50.448 46 51Z" fill="#AE94FF"/>
<path d="M58 39V47C58 47.552 57.552 48 57 48H49C48.448 48 48 47.552 48 47V39C48 38.448 48.448 38 49 38H57C57.552 38 58 38.448 58 39Z" fill="#AE94FF"/>
<path d="M46 39V47C46 47.552 45.552 48 45 48H37C36.448 48 36 47.552 36 47V39C36 38.448 36.448 38 37 38H45C45.552 38 46 38.448 46 39Z" fill="#AE94FF"/>
<path d="M40 17V25C40 25.552 39.552 26 39 26H31C30.448 26 30 25.552 30 25V17C30 16.448 30.448 16 31 16H39C39.552 16 40 16.448 40 17Z" fill="#AE94FF"/>
<path d="M31.9996 30C31.9996 31.106 31.1056 32 29.9996 32C22.3176 32 20.4136 27.768 17.9456 24.84L15.1436 37.572L21.6396 46.854C21.8736 47.19 21.9996 47.59 21.9996 48V58C21.9996 59.106 21.1056 60 19.9996 60C18.8936 60 17.9996 59.106 17.9996 58V48.63L11.9576 40H10.4396L11.9616 47.608C12.0136 47.868 12.0136 48.134 11.9616 48.394L9.96161 58.394C9.74361 59.492 8.66761 60.18 7.60761 59.962C6.52561 59.746 5.82161 58.692 6.03961 57.608L7.96161 48L6.03961 38.392C5.99761 38.19 5.99161 37.984 6.01161 37.778L7.59361 23.542C7.98761 20.024 11.3256 17.522 14.7796 18.324C23.3576 20.36 21.1556 28 29.9996 28C31.1056 28 31.9996 28.894 31.9996 30Z" fill="#AE94FF"/>
<path d="M26 12C26 15.314 23.314 18 20 18C16.686 18 14 15.314 14 12C14 8.686 16.686 6 20 6C23.314 6 26 8.686 26 12Z" fill="#AE94FF"/>
</svg>
