<svg width="64" height="64" viewBox="0 0 64 64" fill="none" xmlns="http://www.w3.org/2000/svg">
<path d="M10.5274 15.8975C10.9703 15.4546 11.426 15.0286 11.8916 14.6162L7.52077 10.2454L4.86914 12.897L9.24039 17.2682C9.65464 16.8002 10.0825 16.3424 10.5274 15.8975Z" fill="#AE94FF"/>
<path d="M32.0054 10.751C17.3011 10.751 5.38086 22.6711 5.38086 37.3755C5.38086 52.0797 17.3011 64 32.0054 64C46.7096 64 58.6299 52.0797 58.6299 37.3755C58.6299 22.6712 46.7096 10.751 32.0054 10.751ZM31.8861 48.0245H28.1361V31.2284L25.0965 32.2729L23.8777 28.7265L31.8861 25.9744V48.0245ZM39.6195 32.9805H35.8695V24.0904H39.6195V32.9805Z" fill="#AE94FF"/>
<path d="M30.1293 7.05988C30.7515 7.02225 31.3765 7.001 32.0047 7.001C32.6327 7.001 33.2575 7.02213 33.8793 7.05988V3.75H42.7567V0H21.252V3.75H30.1293V7.05988Z" fill="#AE94FF"/>
<path d="M54.7653 17.2619L59.1302 12.897L56.4785 10.2454L52.1133 14.6106C52.5812 15.0247 53.039 15.4526 53.4839 15.8975C53.9268 16.3404 54.3528 16.7961 54.7653 17.2619Z" fill="#AE94FF"/>
</svg>
