<svg width="64" height="64" viewBox="0 0 64 64" fill="none" xmlns="http://www.w3.org/2000/svg">
<path d="M12.1457 10.863L10.7767 9.40002C10.2877 9.85902 9.8057 10.342 9.3457 10.835L10.8077 12.2C11.2384 11.7414 11.6844 11.2957 12.1457 10.863Z" fill="#AE94FF"/>
<path d="M9.55734 13.632L8.01034 12.365C7.58368 12.887 7.17268 13.423 6.77734 13.973L8.40034 15.138C8.77168 14.624 9.15734 14.122 9.55734 13.632Z" fill="#AE94FF"/>
<path d="M7.34972 16.715L5.64972 15.661C5.29372 16.2343 4.95605 16.8197 4.63672 17.417L6.40072 18.359C6.70005 17.8003 7.01639 17.2523 7.34972 16.715Z" fill="#AE94FF"/>
<path d="M15.0708 8.45198L13.9008 6.82898C13.3528 7.22431 12.8194 7.63665 12.3008 8.06598L13.5728 9.60898C14.0581 9.20831 14.5574 8.82265 15.0708 8.45198Z" fill="#AE94FF"/>
<path d="M5.5638 20.0621L3.7418 19.2371C3.4638 19.8511 3.2038 20.4811 2.9668 21.1131L4.8398 21.8131C5.06313 21.2204 5.30446 20.6367 5.5638 20.0621Z" fill="#AE94FF"/>
<path d="M25.3505 3.76597L24.8925 1.81897C24.2312 1.97497 23.5789 2.15097 22.9355 2.34697L23.5185 4.25997C24.1219 4.07597 24.7325 3.9113 25.3505 3.76597Z" fill="#AE94FF"/>
<path d="M29.0869 3.14405L28.8869 1.15405C28.2109 1.22072 27.5416 1.30972 26.8789 1.42105L27.2059 3.39405C27.8266 3.29072 28.4536 3.20739 29.0869 3.14405Z" fill="#AE94FF"/>
<path d="M21.7264 4.873L21.0174 3C20.3848 3.24 19.7618 3.5 19.1484 3.78L19.9794 5.6C20.5514 5.34 21.1338 5.09767 21.7264 4.873Z" fill="#AE94FF"/>
<path d="M4.23178 23.613L2.31678 23.036C2.12278 23.6787 1.95078 24.3333 1.80078 25L3.74878 25.451C3.88878 24.829 4.04978 24.2163 4.23178 23.613Z" fill="#AE94FF"/>
<path d="M18.28 6.44301L17.333 4.68201C16.7384 5.00134 16.1547 5.34001 15.582 5.69801L16.642 7.39801C17.1774 7.06134 17.7234 6.74301 18.28 6.44301Z" fill="#AE94FF"/>
<path d="M9.37109 53.1879C9.83309 53.6806 10.3104 54.1583 10.8031 54.6209L12.1711 53.1619C11.7104 52.7293 11.2634 52.2819 10.8301 51.8199L9.37109 53.1879Z" fill="#AE94FF"/>
<path d="M15.6172 58.323C16.1899 58.6797 16.7752 59.0183 17.3732 59.339L18.3172 57.576C17.7592 57.2767 17.2122 56.9597 16.6762 56.625L15.6172 58.323Z" fill="#AE94FF"/>
<path d="M8.42478 48.8929L6.80078 50.0599C7.19611 50.6079 7.60745 51.1433 8.03478 51.6659L9.58078 50.3999C9.18011 49.9093 8.79478 49.4069 8.42478 48.8929Z" fill="#AE94FF"/>
<path d="M12.3262 55.9591C12.8482 56.3877 13.3838 56.7997 13.9332 57.1951L15.0992 55.5701C14.5852 55.2014 14.0852 54.8161 13.5992 54.4141L12.3262 55.9591Z" fill="#AE94FF"/>
<path d="M19.1914 60.239C19.8024 60.517 20.4334 60.778 21.0654 61.017L21.7704 59.146C21.1777 58.922 20.5937 58.6793 20.0184 58.418L19.1914 60.239Z" fill="#AE94FF"/>
<path d="M3.37862 27.305L1.40062 26.984C1.29262 27.6467 1.20596 28.3167 1.14062 28.994L3.13163 29.185C3.19563 28.5523 3.27796 27.9257 3.37862 27.305Z" fill="#AE94FF"/>
<path d="M22.9883 61.669C23.6323 61.8643 24.2849 62.039 24.9463 62.193L25.3993 60.245C24.7813 60.1017 24.1709 59.9383 23.5683 59.755L22.9883 61.669Z" fill="#AE94FF"/>
<path d="M26.9336 62.588C27.5936 62.697 28.2696 62.788 28.9436 62.851L29.1436 60.861C28.5109 60.799 27.8846 60.7167 27.2646 60.614L26.9336 62.588Z" fill="#AE94FF"/>
<path d="M6.4212 45.679L4.6582 46.622C4.9742 47.213 5.3152 47.803 5.6722 48.376L7.3722 47.317C7.03687 46.783 6.71987 46.237 6.4212 45.679Z" fill="#AE94FF"/>
<path d="M3.13844 34.866L1.14844 35.066C1.2151 35.742 1.3031 36.4116 1.41244 37.075L3.38544 36.751C3.28344 36.1276 3.2011 35.4993 3.13844 34.866Z" fill="#AE94FF"/>
<path d="M4.85538 42.231L2.98438 42.938C3.22371 43.57 3.48238 44.193 3.76038 44.807L5.58137 43.98C5.32071 43.4066 5.07871 42.8236 4.85538 42.231Z" fill="#AE94FF"/>
<path d="M3 32C3 31.6907 3.005 31.3834 3.015 31.078L1.015 31.014C1.005 31.338 1 31.6667 1 32C1 32.349 1 32.7 1.017 33.042L3.017 32.975C3.005 32.651 3 32.327 3 32Z" fill="#AE94FF"/>
<path d="M3.75559 38.6L1.80859 39.056C1.96259 39.7166 2.13726 40.369 2.33259 41.013L4.24659 40.433C4.06326 39.833 3.89959 39.222 3.75559 38.6Z" fill="#AE94FF"/>
<path d="M54.8 11H57V9H52C51.7348 9 51.4804 9.10536 51.2929 9.29289C51.1054 9.48043 51 9.73478 51 10V15H53V12.012C56.9143 16.1208 59.5367 21.2881 60.542 26.8732C61.5474 32.4583 60.8914 38.2156 58.6555 43.4315C56.4196 48.6473 52.7021 53.0922 47.9638 56.2152C43.2255 59.3382 37.6749 61.0019 32 61V63C38.0233 63.0015 43.9165 61.248 48.9592 57.9539C54.0019 54.6597 57.9755 49.9676 60.3942 44.4513C62.8129 38.935 63.5719 32.8334 62.5784 26.8926C61.5849 20.9518 58.8819 15.4292 54.8 11Z" fill="#AE94FF"/>
<path d="M32 51C35.7578 51 39.4313 49.8857 42.5558 47.7979C45.6804 45.7102 48.1156 42.7428 49.5537 39.271C50.9918 35.7992 51.368 31.9789 50.6349 28.2933C49.9018 24.6077 48.0922 21.2222 45.435 18.565C42.7778 15.9078 39.3924 14.0982 35.7067 13.3651C32.0211 12.632 28.2008 13.0082 24.729 14.4463C21.2572 15.8844 18.2898 18.3196 16.2021 21.4442C14.1143 24.5687 13 28.2422 13 32C13.0056 37.0374 15.0091 41.8669 18.5711 45.4289C22.1331 48.9909 26.9626 50.9944 32 51ZM40 27C40 26.7348 40.1054 26.4804 40.2929 26.2929C40.4804 26.1054 40.7348 26 41 26H47C47.177 26 47.3508 26.0471 47.5037 26.1362C47.6566 26.2254 47.7831 26.3536 47.8702 26.5076C47.9573 26.6617 48.002 26.8361 47.9997 27.0131C47.9974 27.1901 47.9482 27.3633 47.857 27.515C45.9877 30.6314 45.0002 34.197 45 37.831V38H43V37.831C43.0001 34.4192 43.7918 31.0539 45.313 28H42V29H40V27ZM37.03 25.757L38.97 26.243L35.97 38.243L34.03 37.757L37.03 25.757ZM24.152 34.47L29.152 26.47C29.2671 26.2859 29.439 26.1442 29.6417 26.0664C29.8444 25.9886 30.067 25.9789 30.2757 26.0388C30.4844 26.0986 30.668 26.2248 30.7987 26.3982C30.9293 26.5716 31 26.7829 31 27V34H33V36H31V38H29V36H25C24.8215 36 24.6462 35.9522 24.4924 35.8616C24.3386 35.771 24.2119 35.6409 24.1254 35.4848C24.0388 35.3286 23.9957 35.1522 24.0003 34.9738C24.005 34.7953 24.0574 34.6214 24.152 34.47ZM19.5 26C20.4283 26 21.3185 26.3688 21.9749 27.0251C22.6313 27.6815 23 28.5717 23 29.5C22.9995 30.7029 22.5777 31.8676 21.808 32.792L19.135 36H23V38H17C16.81 37.9999 16.6239 37.9457 16.4636 37.8437C16.3033 37.7417 16.1753 37.5962 16.0948 37.4241C16.0142 37.252 15.9843 37.0605 16.0086 36.8721C16.0329 36.6836 16.1104 36.506 16.232 36.36L20.271 31.512C20.7415 30.947 20.9994 30.2352 21 29.5C21 29.1022 20.842 28.7207 20.5607 28.4393C20.2794 28.158 19.8978 28 19.5 28C19.1022 28 18.7206 28.158 18.4393 28.4393C18.158 28.7207 18 29.1022 18 29.5V30H16V29.5C16 28.5717 16.3687 27.6815 17.0251 27.0251C17.6815 26.3688 18.5717 26 19.5 26Z" fill="#AE94FF"/>
<path d="M9 32C9 36.549 10.3489 40.9958 12.8762 44.7781C15.4035 48.5604 18.9956 51.5084 23.1983 53.2492C27.401 54.99 32.0255 55.4455 36.4871 54.5581C40.9486 53.6706 45.0468 51.4801 48.2635 48.2635C51.4801 45.0468 53.6706 40.9486 54.5581 36.4871C55.4455 32.0255 54.99 27.401 53.2492 23.1983C51.5084 18.9956 48.5604 15.4035 44.7781 12.8762C40.9958 10.3489 36.549 9 32 9C25.9021 9.00688 20.056 11.4323 15.7441 15.7441C11.4323 20.056 9.00688 25.9021 9 32ZM32 11C36.1534 11 40.2135 12.2316 43.667 14.5391C47.1204 16.8466 49.812 20.1264 51.4015 23.9636C52.9909 27.8009 53.4068 32.0233 52.5965 36.0969C51.7862 40.1705 49.7861 43.9123 46.8492 46.8492C43.9123 49.7861 40.1705 51.7862 36.0969 52.5965C32.0233 53.4068 27.8009 52.9909 23.9636 51.4015C20.1264 49.812 16.8466 47.1204 14.5391 43.667C12.2316 40.2135 11 36.1534 11 32C11.0061 26.4323 13.2205 21.0944 17.1575 17.1575C21.0944 13.2205 26.4323 11.0061 32 11Z" fill="#AE94FF"/>
<path d="M29.0007 30.4871L26.8047 34.0001H29.0007V30.4871Z" fill="#AE94FF"/>
</svg>
