<svg width="276" height="366" viewBox="0 0 276 366" fill="none" xmlns="http://www.w3.org/2000/svg">
<g filter="url(#filter0_d_948_3008)">
<path d="M128.053 331C105.582 331 85.9193 326.295 69.066 316.885C52.2126 307.476 39.0811 294.344 29.6713 277.491C20.2615 260.637 15.5566 240.975 15.5566 218.504V127.496C15.5566 105.025 20.2615 85.3627 29.6713 68.5093C39.0811 51.656 52.2126 38.5244 69.066 29.1146C85.9193 19.7049 105.582 15 128.053 15C150.524 15 170.186 19.7049 187.039 29.1146C203.893 38.5244 217.024 51.656 226.434 68.5093C235.844 85.3627 240.549 105.025 240.549 127.496V218.504C240.549 240.975 235.844 260.637 226.434 277.491C217.024 294.344 203.893 307.476 187.039 316.885C170.186 326.295 150.524 331 128.053 331ZM128.053 276.648C138.165 276.648 147.294 274.26 155.439 269.485C163.585 264.71 170.046 258.25 174.821 250.104C179.596 241.958 181.983 232.829 181.983 222.717V122.861C181.983 112.749 179.596 103.62 174.821 95.4747C170.046 87.3289 163.585 80.8684 155.439 76.0933C147.294 71.3182 138.165 68.9306 128.053 68.9306C117.941 68.9306 108.812 71.3182 100.666 76.0933C92.5202 80.8684 86.0598 87.3289 81.2846 95.4747C76.5095 103.62 74.122 112.749 74.122 122.861V222.717C74.122 232.829 76.5095 241.958 81.2846 250.104C86.0598 258.25 92.5202 264.71 100.666 269.485C108.812 274.26 117.941 276.648 128.053 276.648Z" fill="white"/>
</g>
<defs>
<filter id="filter0_d_948_3008" x="0.556641" y="0" width="274.992" height="366" filterUnits="userSpaceOnUse" color-interpolation-filters="sRGB">
<feFlood flood-opacity="0" result="BackgroundImageFix"/>
<feColorMatrix in="SourceAlpha" type="matrix" values="0 0 0 0 0 0 0 0 0 0 0 0 0 0 0 0 0 0 127 0" result="hardAlpha"/>
<feOffset dx="10" dy="10"/>
<feGaussianBlur stdDeviation="12.5"/>
<feComposite in2="hardAlpha" operator="out"/>
<feColorMatrix type="matrix" values="0 0 0 0 0 0 0 0 0 0 0 0 0 0 0 0 0 0 0.55 0"/>
<feBlend mode="normal" in2="BackgroundImageFix" result="effect1_dropShadow_948_3008"/>
<feBlend mode="normal" in="SourceGraphic" in2="effect1_dropShadow_948_3008" result="shape"/>
</filter>
</defs>
</svg>
