<svg width="64" height="64" viewBox="0 0 64 64" fill="none" xmlns="http://www.w3.org/2000/svg">
<path d="M34.8538 6L35.8538 4H23.0938L24.0938 6H34.8538Z" fill="#AE94FF"/>
<path d="M48.4755 19H42.1855C41.6465 19.0016 41.1177 19.147 40.6536 19.4213C40.1895 19.6955 39.807 20.0886 39.5455 20.56C39.3125 21.0045 39.1891 21.4982 39.1855 22V28.29C39.1879 29.0849 39.5047 29.8466 40.0668 30.4087C40.6289 30.9708 41.3906 31.2877 42.1855 31.29H48.4755C49.2709 31.2891 50.0335 30.9728 50.5959 30.4104C51.1583 29.8479 51.4747 29.0854 51.4755 28.29V22C51.4732 21.2051 51.1564 20.4433 50.5943 19.8812C50.0322 19.3191 49.2705 19.0023 48.4755 19Z" fill="#AE94FF"/>
<path d="M49.9155 33.07C49.4708 32.8376 48.9773 32.7142 48.4755 32.71H42.1855C41.3914 32.7147 40.6311 33.0323 40.0695 33.5939C39.5079 34.1555 39.1903 34.9158 39.1855 35.71V42C39.1889 42.6764 39.4194 43.332 39.8402 43.8615C40.2609 44.3911 40.8474 44.7639 41.5055 44.92C41.5125 45.0678 48.1913 44.9778 48.4755 45.0001C49.2705 44.9978 50.0322 44.6809 50.5943 44.1188C51.1564 43.5567 51.4732 42.795 51.4755 42.0001V35.71C51.4739 35.171 51.3285 34.6421 51.0543 34.178C50.7801 33.7139 50.387 33.3314 49.9155 33.07Z" fill="#AE94FF"/>
<path d="M38.4754 45.3399C38.0104 45.8644 37.4391 46.2837 36.7993 46.5699C36.1596 46.8561 35.4662 47.0027 34.7654 46.9999H28.4754C27.1495 46.9995 25.878 46.4725 24.9404 45.5349C24.0028 44.5974 23.4759 43.3259 23.4754 41.9999V35.7099C23.4726 35.0091 23.6192 34.3157 23.9054 33.676C24.1917 33.0363 24.611 32.4649 25.1354 31.9999C24.611 31.535 24.1917 30.9636 23.9055 30.3239C23.6192 29.6842 23.4726 28.9908 23.4754 28.2899V21.9999C23.4759 20.674 24.0028 19.4025 24.9404 18.4649C25.878 17.5274 27.1495 17.0004 28.4754 16.9999H34.7654C35.4662 16.9972 36.1596 17.1438 36.7993 17.43C37.4391 17.7163 38.0104 18.1355 38.4754 18.6599C38.9403 18.1355 39.5117 17.7163 40.1514 17.43C40.7912 17.1438 41.4846 16.9972 42.1854 16.9999H46.4254V7.99995C46.4255 7.47462 46.3222 6.95441 46.1212 6.46904C45.9202 5.98368 45.6256 5.54266 45.2541 5.1712C44.8827 4.79974 44.4417 4.50511 43.9563 4.30414C43.4709 4.10317 42.9507 3.9998 42.4254 3.99995H38.0954L37.0954 5.99995L36.3654 7.44995C36.2834 7.61574 36.1565 7.75518 35.9992 7.85241C35.8418 7.94965 35.6603 8.00076 35.4754 7.99995H23.4754C23.2904 8.00076 23.109 7.94965 22.9516 7.85241C22.7943 7.75518 22.6674 7.61574 22.5854 7.44995C22.1674 6.60401 21.2911 4.84995 20.8654 3.99988L16.5254 3.99995C16.0001 3.9998 15.4799 4.10317 14.9945 4.30414C14.5091 4.50511 14.0681 4.79974 13.6966 5.1712C13.3252 5.54266 13.0305 5.98368 12.8296 6.46904C12.6286 6.95441 12.5252 7.47462 12.5254 7.99995V55.9999C12.5253 56.5253 12.6286 57.0455 12.8296 57.5308C13.0306 58.0162 13.3252 58.4572 13.6967 58.8287C14.0681 59.2001 14.5091 59.4948 14.9945 59.6957C15.4799 59.8967 16.0001 60.0001 16.5254 59.9999H42.4254C42.9507 60.0001 43.4709 59.8967 43.9563 59.6957C44.4416 59.4948 44.8827 59.2001 45.2541 58.8287C45.6256 58.4572 45.9202 58.0162 46.1212 57.5308C46.3222 57.0455 46.4255 56.5253 46.4254 55.9999V46.9999H42.1854C41.4846 47.0027 40.7912 46.8561 40.1514 46.5699C39.5117 46.2837 38.9403 45.8644 38.4754 45.3399ZM33.4754 55.9999H25.4754C25.2127 55.996 24.9622 55.889 24.7778 55.7018C24.5935 55.5147 24.4901 55.2626 24.4901 54.9999C24.4902 54.7372 24.5935 54.4851 24.7779 54.298C24.9622 54.1109 25.2128 54.0038 25.4755 53.9999H33.4754C33.738 54.0038 33.9886 54.1109 34.173 54.298C34.3573 54.4851 34.4607 54.7373 34.4607 54.9999C34.4607 55.2626 34.3573 55.5148 34.173 55.7019C33.9886 55.889 33.738 55.9961 33.4754 55.9999Z" fill="#AE94FF"/>
<path d="M27.8446 31.2199C27.9359 31.3534 34.4666 31.2677 34.7645 31.29C35.3045 31.2871 35.834 31.1401 36.2981 30.864C36.7622 30.588 37.1442 30.193 37.4046 29.7199C37.6366 29.2787 37.76 28.7885 37.7646 28.29V22C37.7583 21.2063 37.4402 20.4469 36.8789 19.8857C36.3177 19.3244 35.5583 19.0063 34.7645 19H28.4746C27.6797 19.0023 26.918 19.3191 26.3559 19.8812C25.7937 20.4433 25.4769 21.2051 25.4746 22V28.29C25.4783 28.9749 25.715 29.6382 26.1457 30.1707C26.5764 30.7032 27.1756 31.0732 27.8446 31.2199Z" fill="#AE94FF"/>
<path d="M25.4746 42C25.4769 42.7949 25.7938 43.5566 26.3559 44.1187C26.918 44.6808 27.6797 44.9976 28.4746 45H34.7646C35.3544 44.9977 35.9305 44.8221 36.4213 44.495C36.912 44.1678 37.2957 43.7035 37.5246 43.16C37.9886 42.5134 37.682 36.5475 37.7647 35.71C37.7597 34.9159 37.4419 34.1557 36.8804 33.5942C36.3189 33.0327 35.5587 32.715 34.7646 32.71H28.4746C27.6809 32.7163 26.9215 33.0344 26.3603 33.5957C25.7991 34.1569 25.481 34.9163 25.4746 35.71L25.4746 42Z" fill="#AE94FF"/>
</svg>
