<svg width="64" height="64" viewBox="0 0 64 64" fill="none" xmlns="http://www.w3.org/2000/svg">
<path d="M49.8252 24.8999L45.8792 26.4939C45.3712 26.6999 44.8372 26.8039 44.2932 26.8039C43.1272 26.8039 41.9992 26.3119 41.2012 25.4539C40.4072 24.6019 39.9972 23.4439 40.0792 22.2779L40.3772 18.0339L37.6392 14.7779C37.0312 14.0539 36.7272 13.1679 36.6852 12.2599H10.7392C6.03922 12.2599 2.19922 16.0999 2.19922 20.8199V44.6199C2.19922 49.3399 6.03922 53.1599 10.7392 53.1599H17.2392L17.0992 57.1399C17.0592 58.7599 17.9192 60.2399 19.3592 60.9999C19.9792 61.3199 20.6392 61.4799 21.3192 61.4799C22.1992 61.4799 23.0792 61.1799 23.8192 60.6199L33.7392 53.1599H45.1792C49.8792 53.1599 53.7192 49.3399 53.7192 44.6199V26.4739L49.8252 24.8999ZM28.9532 39.0599H18.4552C17.4612 39.0599 16.6552 38.2539 16.6552 37.2599C16.6552 36.2659 17.4612 35.4599 18.4552 35.4599H28.9532C29.9472 35.4599 30.7532 36.2659 30.7532 37.2599C30.7532 38.2539 29.9472 39.0599 28.9532 39.0599ZM38.2592 29.9679H18.4592C17.4652 29.9679 16.6592 29.1619 16.6592 28.1679C16.6592 27.1739 17.4652 26.3679 18.4592 26.3679H38.2592C39.2532 26.3679 40.0592 27.1739 40.0592 28.1679C40.0592 29.1619 39.2532 29.9679 38.2592 29.9679Z" fill="#AE94FF"/>
<path d="M50.8646 4.90794L53.7626 9.54594L59.0686 10.8679C59.9486 11.0879 60.2946 12.1519 59.7126 12.8479L56.1966 17.0359L56.5786 22.4899C56.6426 23.3939 55.7366 24.0539 54.8946 23.7139L49.8246 21.6639L44.7546 23.7139C43.9146 24.0539 43.0066 23.3959 43.0706 22.4899L43.4526 17.0359L39.9366 12.8479C39.3526 12.1539 39.7006 11.0879 40.5806 10.8679L45.8866 9.54594L48.7846 4.90794C49.2626 4.13794 50.3846 4.13794 50.8646 4.90794Z" fill="#AE94FF"/>
</svg>
