<svg width="64" height="64" viewBox="0 0 64 64" fill="none" xmlns="http://www.w3.org/2000/svg">
<g clip-path="url(#clip0_909_2851)">
<path d="M27.8218 17.9521C26.668 17.3188 25.6646 16.4209 24.9106 15.3589L17.3223 26.0122H22.0825L27.8218 17.9521Z" fill="#AE94FF"/>
<path d="M41.917 26.0122H46.6772L39.0889 15.3589C38.3364 16.4189 37.3335 17.3174 36.1777 17.9521L41.917 26.0122Z" fill="#AE94FF"/>
<path d="M26.9971 40.6655H24.8652V42.5806H26.9971C27.4272 42.5806 27.7773 42.2305 27.7773 41.8003V41.4463C27.7773 41.0156 27.4272 40.6655 26.9971 40.6655Z" fill="#AE94FF"/>
<path d="M62.5566 29.8882C61.6367 29.8882 2.40283 29.8882 1.44336 29.8882C0.647461 29.8882 0 30.5356 0 31.3315V56.9458C0 57.7422 0.647461 58.3892 1.44336 58.3892H62.5566C63.3525 58.3892 64 57.7422 64 56.9458V31.3315C64 30.5356 63.3525 29.8882 62.5566 29.8882ZM14.562 49.7607C14.562 50.6523 13.8398 51.376 12.9468 51.376C12.0552 51.376 11.3315 50.6523 11.3315 49.7607V46.1416H8.41943V49.7607C8.41943 50.6523 7.6958 51.376 6.8042 51.376C5.9126 51.376 5.17969 50.6523 5.17969 49.7607L5.18896 39.0503C5.18896 38.1592 5.9126 37.4355 6.8042 37.4355C7.6958 37.4355 8.41943 38.1592 8.41943 39.0503L8.41602 42.9111H11.3315V39.0503C11.3315 38.1616 12.0508 37.4355 12.9468 37.4355C13.8359 37.4355 14.562 38.1562 14.562 39.0503V49.7607ZM19.7134 49.7607C19.7134 50.6523 18.9897 51.376 18.0981 51.376C17.207 51.376 16.4834 50.6523 16.4834 49.7607V39.0503C16.4834 38.1587 17.208 37.4355 18.0981 37.4355C18.9883 37.4355 19.7134 38.1582 19.7134 39.0503V49.7607ZM31.0078 41.8003C31.0078 43.1519 30.3345 44.3481 29.3071 45.0757L30.8979 49.1753C31.2207 50.0073 30.8086 50.9429 29.978 51.2661C29.1528 51.5874 28.2119 51.1812 27.8872 50.3447L26.1274 45.8105H24.8652V49.7607C24.8652 50.6523 24.1416 51.376 23.25 51.376C22.3569 51.376 21.6348 50.6523 21.6348 49.7607V39.0503C21.6348 38.1567 22.3599 37.4355 23.25 37.4355H26.9971C29.2026 37.4355 31.0078 39.23 31.0078 41.4463V41.8003ZM36.1592 49.7607C36.1592 50.6523 35.4355 51.376 34.5439 51.376C33.6514 51.376 32.9194 50.6523 32.9194 49.7607L32.9292 39.0503C32.9292 38.1572 33.6538 37.4355 34.5439 37.4355C35.4341 37.4355 36.1592 38.1582 36.1592 39.0503V49.7607ZM47.4536 49.7607C47.4536 50.4922 46.9609 51.1328 46.2544 51.3213C45.5288 51.5117 44.7935 51.1865 44.4375 50.5645L41.3096 45.1128V49.7607C41.3096 50.6523 40.5874 51.376 39.6943 51.376C38.8027 51.376 38.0791 50.6523 38.0791 49.7607V39.0503C38.0791 38.3735 38.502 37.7739 39.126 37.5386C39.897 37.2554 40.7153 37.5825 41.0962 38.2471L44.2231 43.6982V39.0503C44.2231 38.1572 44.9497 37.4355 45.8384 37.4355C46.728 37.4355 47.4536 38.1582 47.4536 39.0503V49.7607ZM52.8374 48.1455H55.4116C55.4707 48.1455 55.5806 48.0308 55.5806 47.8447V47.1016H55.0859C54.1929 47.1016 53.4707 46.3779 53.4707 45.4863C53.4707 44.5938 54.1929 43.8711 55.0859 43.8711H57.1958C58.0874 43.8711 58.811 44.5938 58.811 45.4863V47.8447C58.811 49.7915 57.2861 51.376 55.4116 51.376H52.8374C50.9629 51.376 49.4321 49.7915 49.4321 47.8447L49.438 40.9678C49.438 39.0195 50.9629 37.4355 52.8374 37.4355H55.4116C57.2861 37.4355 58.811 39.0195 58.811 40.9678C58.811 41.8594 58.0874 42.583 57.1958 42.583C56.3042 42.583 55.5806 41.8594 55.5806 40.9678C55.5806 40.7808 55.4707 40.6655 55.4116 40.6655L52.8374 40.6631C52.7769 40.6631 52.6743 40.7803 52.6743 40.9678L52.6685 47.8442C52.6685 48.0308 52.7769 48.1455 52.8374 48.1455Z" fill="#AE94FF"/>
<path d="M31.999 15.147C34.6528 15.147 36.8223 12.9878 36.8223 10.3232C36.8223 7.66406 34.6582 5.5 31.999 5.5C29.3398 5.5 27.1758 7.66406 27.1758 10.3232C27.1758 12.9883 29.3457 15.147 31.999 15.147Z" fill="#AE94FF"/>
</g>
<defs>
<clipPath id="clip0_909_2851">
<rect width="64" height="64" fill="white"/>
</clipPath>
</defs>
</svg>
