<svg width="64" height="64" viewBox="0 0 64 64" fill="none" xmlns="http://www.w3.org/2000/svg">
<path d="M38.496 10.3998C35.5096 10.3998 32.5902 11.2853 30.1072 12.9445C27.6241 14.6036 25.6887 16.9618 24.5459 19.7209C23.403 22.4799 23.104 25.5159 23.6866 28.4449C24.2692 31.3739 25.7073 34.0644 27.819 36.1761C29.9307 38.2878 32.6211 39.7259 35.5501 40.3085C38.4791 40.8911 41.5151 40.5921 44.2742 39.4493C47.0333 38.3064 49.3915 36.3711 51.0506 33.888C52.7098 31.4049 53.5953 28.4856 53.5954 25.4992C53.5921 21.4956 52.0003 17.6569 49.1693 14.8259C46.3383 11.9949 42.4996 10.403 38.496 10.3998ZM31.4962 22.4994H29.9963V29.4991C29.9939 29.7627 29.8876 30.0148 29.7003 30.2004C29.513 30.386 29.26 30.4901 28.9963 30.4901C28.7327 30.4901 28.4797 30.386 28.2924 30.2004C28.1051 30.0148 27.9987 29.7627 27.9964 29.4991V22.4994H26.4964C26.2327 22.497 25.9807 22.3906 25.7951 22.2033C25.6095 22.0161 25.5053 21.7631 25.5053 21.4994C25.5053 21.2357 25.6095 20.9827 25.7951 20.7955C25.9807 20.6082 26.2327 20.5018 26.4964 20.4994H31.4962C31.6283 20.4982 31.7593 20.5232 31.8816 20.573C32.004 20.6227 32.1153 20.6962 32.2091 20.7891C32.3029 20.8821 32.3773 20.9927 32.4282 21.1146C32.479 21.2365 32.5051 21.3673 32.5051 21.4994C32.5051 21.6315 32.479 21.7622 32.4282 21.8841C32.3773 22.006 32.3029 22.1167 32.2091 22.2097C32.1153 22.3026 32.004 22.3761 31.8816 22.4258C31.7593 22.4755 31.6283 22.5005 31.4962 22.4994ZM35.4961 29.4991C35.4972 29.6311 35.4722 29.7621 35.4225 29.8845C35.3728 30.0068 35.2993 30.1181 35.2064 30.2119C35.1134 30.3057 35.0028 30.3802 34.8808 30.431C34.7589 30.4818 34.6282 30.508 34.4961 30.508C34.364 30.508 34.2333 30.4818 34.1114 30.431C33.9894 30.3802 33.8788 30.3057 33.7858 30.2119C33.6929 30.1181 33.6194 30.0068 33.5697 29.8845C33.52 29.7621 33.495 29.6311 33.4961 29.4991V21.4994C33.495 21.3673 33.52 21.2363 33.5697 21.1139C33.6194 20.9916 33.6929 20.8803 33.7858 20.7865C33.8788 20.6927 33.9894 20.6182 34.1114 20.5674C34.2333 20.5166 34.364 20.4904 34.4961 20.4904C34.6282 20.4904 34.7589 20.5166 34.8808 20.5674C35.0028 20.6182 35.1134 20.6927 35.2064 20.7865C35.2993 20.8803 35.3728 20.9916 35.4225 21.1139C35.4722 21.2363 35.4972 21.3673 35.4961 21.4994V29.4991ZM40.4959 26.4992H38.496V29.4991C38.4937 29.7628 38.3874 30.015 38.2001 30.2008C38.0128 30.3865 37.7598 30.4907 37.496 30.4907C37.2322 30.4907 36.9791 30.3865 36.7918 30.2008C36.6046 30.015 36.4982 29.7628 36.496 29.4991V21.4994C36.4968 21.2344 36.6024 20.9805 36.7898 20.7931C36.9771 20.6057 37.231 20.5001 37.496 20.4994H40.4959C40.8903 20.4986 41.281 20.5757 41.6456 20.7261C42.0102 20.8766 42.3415 21.0974 42.6207 21.3761C42.8998 21.6547 43.1213 21.9857 43.2724 22.35C43.4235 22.7143 43.5013 23.1048 43.5013 23.4992C43.5013 23.8937 43.4235 24.2842 43.2724 24.6485C43.1213 25.0128 42.8998 25.3438 42.6207 25.6224C42.3415 25.9011 42.0102 26.1219 41.6456 26.2724C41.281 26.4228 40.8903 26.4999 40.4959 26.4992ZM48.4956 30.499H45.4957C45.3636 30.5002 45.2326 30.4752 45.1103 30.4255C44.9879 30.3758 44.8766 30.3023 44.7828 30.2093C44.689 30.1164 44.6145 30.0057 44.5637 29.8838C44.5129 29.7619 44.4867 29.6311 44.4867 29.4991C44.4867 29.367 44.5129 29.2362 44.5637 29.1143C44.6145 28.9924 44.689 28.8818 44.7828 28.7888C44.8766 28.6958 44.9879 28.6224 45.1103 28.5726C45.2326 28.5229 45.3636 28.4979 45.4957 28.4991H48.4956C48.7593 28.4969 49.0115 28.3906 49.1973 28.2033C49.383 28.016 49.4872 27.7629 49.4872 27.4991C49.4872 27.2354 49.383 26.9823 49.1973 26.795C49.0115 26.6077 48.7593 26.5014 48.4956 26.4992H47.4956C46.7009 26.4977 45.9393 26.181 45.3779 25.6186C44.8165 25.0562 44.5012 24.294 44.5012 23.4993C44.5012 22.7046 44.8165 21.9424 45.3779 21.38C45.9393 20.8175 46.7009 20.5009 47.4956 20.4994H50.4955C50.7591 20.5018 51.0112 20.6081 51.1968 20.7954C51.3824 20.9827 51.4865 21.2357 51.4865 21.4994C51.4865 21.763 51.3824 22.016 51.1968 22.2033C51.0112 22.3906 50.7591 22.497 50.4955 22.4993H47.4956C47.2318 22.5015 46.9796 22.6079 46.7939 22.7951C46.6082 22.9824 46.504 23.2355 46.504 23.4993C46.504 23.7631 46.6082 24.0161 46.7939 24.2034C46.9796 24.3907 47.2318 24.497 47.4956 24.4992H48.4956C49.2903 24.5007 50.0519 24.8174 50.6133 25.3798C51.1747 25.9423 51.49 26.7045 51.49 27.4991C51.49 28.2938 51.1747 29.056 50.6133 29.6184C50.0519 30.1809 49.2902 30.4976 48.4956 30.499Z" fill="#AE94FF"/>
<path d="M40.496 22.4993H38.4961V24.4992H40.496C40.7598 24.497 41.012 24.3907 41.1977 24.2034C41.3834 24.0161 41.4876 23.763 41.4876 23.4992C41.4876 23.2355 41.3834 22.9824 41.1977 22.7951C41.012 22.6078 40.7598 22.5015 40.496 22.4993Z" fill="#AE94FF"/>
<path d="M38.4953 4C34.2431 4 30.0865 5.26091 26.551 7.62327C23.0155 9.98563 20.2599 13.3433 18.6326 17.2718C17.0054 21.2003 16.5797 25.523 17.4092 29.6935C18.2388 33.8639 20.2864 37.6947 23.2931 40.7014C26.2998 43.7081 30.1306 45.7557 34.301 46.5853C38.4714 47.4148 42.7942 46.9891 46.7227 45.3618C50.6511 43.7346 54.0088 40.979 56.3712 37.4435C58.7336 33.908 59.9945 29.7513 59.9945 25.4992C59.988 19.7992 57.7208 14.3346 53.6903 10.3041C49.6599 6.27366 44.1952 4.00649 38.4953 4ZM38.4953 42.5985C35.1134 42.5985 31.8074 41.5956 28.9954 39.7167C26.1834 37.8378 23.9918 35.1673 22.6975 32.0428C21.4033 28.9183 21.0647 25.4802 21.7245 22.1632C22.3843 18.8463 24.0128 15.7995 26.4042 13.4081C28.7956 11.0167 31.8424 9.38813 35.1594 8.72836C38.4763 8.06858 41.9144 8.40721 45.0389 9.70142C48.1634 10.9956 50.834 13.1873 52.7129 15.9993C54.5918 18.8113 55.5946 22.1172 55.5946 25.4992C55.5899 30.0327 53.7868 34.3792 50.5811 37.585C47.3754 40.7907 43.0288 42.5937 38.4953 42.5985Z" fill="#AE94FF"/>
<path d="M19.6066 39.4486L16.6917 42.3635L16.5267 42.1985C16.4342 42.1058 16.3243 42.0322 16.2033 41.982C16.0824 41.9318 15.9527 41.906 15.8217 41.906C15.6907 41.906 15.561 41.9318 15.4401 41.982C15.3191 42.0322 15.2092 42.1058 15.1167 42.1985L5.3773 51.928C4.49294 52.8157 3.99689 54.018 3.99805 55.271C3.9992 56.524 4.49746 57.7254 5.38347 58.6114C6.26947 59.4975 7.47082 59.9958 8.72384 59.997C9.97686 59.9982 11.1792 59.5022 12.0669 58.6179L21.7965 48.8782C21.8908 48.7876 21.966 48.6789 22.0175 48.5587C22.0691 48.4384 22.0959 48.3091 22.0965 48.1782C22.096 48.0459 22.0692 47.915 22.0177 47.7931C21.9662 47.6713 21.891 47.5608 21.7965 47.4682L21.6315 47.3032L24.5463 44.3884C22.6546 43.0066 20.9883 41.3403 19.6066 39.4486Z" fill="#AE94FF"/>
</svg>
