<svg width="64" height="64" viewBox="0 0 64 64" fill="none" xmlns="http://www.w3.org/2000/svg">
<g clip-path="url(#clip0_909_2848)">
<path d="M63.1105 34.56C62.1205 33.03 60.4405 32.12 58.6105 32.12C57.5805 32.12 56.5705 32.42 55.7005 32.98C53.4405 34.45 52.6605 37.34 53.7605 39.72L47.5905 43.91C46.3005 42.09 44.5505 40.61 42.5005 39.67L47.6505 25.03C48.7305 25.34 49.8705 25.5 51.0405 25.5C53.8805 25.5 56.5205 24.57 58.6405 22.98C58.6905 22.94 58.7305 22.91 58.7705 22.87C61.8105 20.54 63.7805 16.88 63.7805 12.74C63.7805 5.72 58.0605 0 51.0405 0C45.7505 0 41.2005 3.23 39.2705 7.83L35.8205 6.39C36.0305 5.25 35.8605 4.08 35.3105 3.03C34.6705 1.76 33.5605 0.83 32.2105 0.39C31.6805 0.21 31.1205 0.13 30.5705 0.13C29.7405 0.13 28.9005 0.33 28.1405 0.71C26.8705 1.36 25.9405 2.46 25.5005 3.82C25.0605 5.18 25.1805 6.61 25.8305 7.88C26.4805 9.15 27.5805 10.09 28.9405 10.53C29.4705 10.7 30.0205 10.79 30.5705 10.79C31.4105 10.79 32.2405 10.58 33.0005 10.2C34.0105 9.68 34.8105 8.87 35.3205 7.88L38.7605 9.31C38.4405 10.4 38.2805 11.55 38.2805 12.74C38.2805 14.24 38.5405 15.67 39.0105 17L27.1505 22.17C25.0505 18.02 20.7405 15.17 15.7805 15.17C14.1505 15.17 12.5705 15.48 11.1305 16.05L8.21052 10.06C9.18052 9.48 9.93052 8.59 10.3705 7.51C10.9205 6.18 10.9105 4.72 10.3605 3.39C9.54052 1.38 7.58052 0.08 5.40052 0.08C4.69052 0.08 3.99052 0.22 3.33052 0.5C0.580522 1.63 -0.719478 4.8 0.430522 7.54C0.980522 8.87 2.02052 9.91 3.35052 10.45C4.00052 10.72 4.70052 10.86 5.40052 10.86C5.86052 10.86 6.32052 10.8 6.77052 10.68L9.71052 16.7C5.74052 18.87 3.03052 23.08 3.03052 27.9C3.03052 32.02 5.00052 35.7 8.05052 38.03C8.09052 38.07 8.14052 38.11 8.19052 38.14C10.3105 39.72 12.9405 40.65 15.7805 40.65C18.6105 40.65 21.2405 39.72 23.3605 38.14C23.4205 38.11 23.4705 38.07 23.5205 38.02C23.6905 37.89 23.8505 37.76 24.0005 37.62L27.9505 42.47C25.7805 44.76 24.4405 47.85 24.4405 51.25C24.4405 52.06 24.5205 52.85 24.6705 53.63L19.8405 54.69C19.0805 52.6 17.0805 51.15 14.8005 51.15C14.4505 51.15 14.1005 51.18 13.7505 51.25C12.3505 51.53 11.1405 52.34 10.3405 53.54C9.55052 54.73 9.26052 56.16 9.54052 57.55C10.0505 60.06 12.2505 61.87 14.8005 61.87C15.1605 61.87 15.5005 61.83 15.8505 61.76C17.2505 61.48 18.4705 60.67 19.2605 59.48C19.9105 58.51 20.2205 57.37 20.1505 56.22L25.0605 55.15C25.8605 57.65 27.4205 59.81 29.4505 61.36C29.4505 61.36 29.4505 61.36 29.4605 61.37C29.5205 61.41 29.5805 61.46 29.6405 61.5C31.7605 63.07 34.3705 63.99 37.1905 63.99C40.0205 63.99 42.6505 63.06 44.7705 61.48C44.8305 61.45 44.8805 61.41 44.9305 61.36C47.9705 59.03 49.9305 55.37 49.9305 51.24C49.9305 49.07 49.3905 47.02 48.4205 45.23L54.6205 41.02C55.6305 42.16 57.0705 42.82 58.6305 42.82C59.6605 42.82 60.6705 42.51 61.5405 41.95C62.7405 41.18 63.5605 39.97 63.8605 38.57C64.1705 37.18 63.9005 35.75 63.1105 34.56ZM40.7005 54.13C41.6905 53.2 42.3005 51.88 42.3005 50.42C42.3005 47.61 40.0005 45.31 37.1905 45.31C34.3705 45.31 32.0805 47.61 32.0805 50.42C32.0805 51.88 32.6905 53.19 33.6805 54.13C31.2105 54.96 29.7705 56.67 29.3605 59.2C27.9605 57.83 26.9205 56.09 26.4005 54.15C26.4005 54.12 26.3905 54.09 26.3905 54.07C26.3805 54.02 26.3705 53.98 26.3505 53.94C26.3405 53.93 26.3405 53.92 26.3405 53.91C26.1305 53.06 26.0205 52.17 26.0205 51.25C26.0205 45.09 31.0305 40.07 37.2005 40.07C38.6305 40.07 40.0005 40.34 41.2605 40.83L41.2705 40.84H41.2805C43.5605 41.74 45.4705 43.37 46.7405 45.43C46.7505 45.44 46.7605 45.45 46.7605 45.46C47.7805 47.14 48.3705 49.13 48.3705 51.25C48.3705 54.36 47.0905 57.17 45.0305 59.21C44.6305 56.67 43.1705 54.96 40.7005 54.13ZM11.1005 17.76C12.5305 17.1 14.1105 16.73 15.7905 16.73C20.3905 16.73 24.3405 19.52 26.0605 23.49V23.51C26.0605 23.52 26.0705 23.52 26.0705 23.53C26.6505 24.88 26.9705 26.36 26.9705 27.91C26.9705 31.02 25.6905 33.83 23.6305 35.87C23.2305 33.33 21.7805 31.63 19.3005 30.79C20.2905 29.87 20.9005 28.55 20.9005 27.09C20.9005 24.27 18.6005 21.98 15.7905 21.98C12.9705 21.98 10.6805 24.27 10.6805 27.09C10.6805 28.55 11.2905 29.86 12.2805 30.8C9.81052 31.63 8.37052 33.33 7.96052 35.86C5.90052 33.84 4.62052 31.03 4.62052 27.91C4.61052 23.42 7.28052 19.54 11.1005 17.76ZM51.0405 1.57C57.1905 1.57 62.2105 6.58 62.2105 12.75C62.2105 15.85 60.9305 18.67 58.8805 20.7C58.4705 18.16 57.0205 16.47 54.5505 15.64C55.5405 14.71 56.1505 13.39 56.1505 11.93C56.1505 9.11 53.8505 6.82 51.0405 6.82C48.2205 6.82 45.9305 9.11 45.9305 11.93C45.9305 13.39 46.5405 14.7 47.5305 15.64C45.0605 16.47 43.6205 18.17 43.2105 20.7C42.1705 19.69 41.3305 18.47 40.7505 17.11V17.1C40.1905 15.76 39.8705 14.3 39.8705 12.75C39.8705 11.5 40.0805 10.3 40.4505 9.18C40.4705 9.13 40.4805 9.08 40.5005 9.03C42.0305 4.69 46.1805 1.57 51.0405 1.57ZM25.1505 36.54C27.2505 34.27 28.5305 31.24 28.5305 27.91C28.5305 26.4 28.2705 24.96 27.7905 23.62C27.7905 23.62 27.7905 23.62 27.7905 23.61L39.6405 18.44C40.5105 20.18 41.7805 21.7 43.3205 22.86C43.3505 22.9 43.4005 22.93 43.4405 22.97C44.2805 23.59 45.1905 24.12 46.1705 24.52L41.0305 39.1C39.8105 38.71 38.5205 38.51 37.1905 38.51C34.1305 38.51 31.3205 39.6 29.1105 41.4L25.1505 36.54Z" fill="#AE94FF"/>
</g>
<defs>
<clipPath id="clip0_909_2848">
<rect width="64" height="64" fill="white"/>
</clipPath>
</defs>
</svg>
