<svg width="64" height="64" viewBox="0 0 64 64" fill="none" xmlns="http://www.w3.org/2000/svg">
<path d="M45.9996 37.078L47.2516 40H44.7456L45.9996 37.078ZM61.1176 59.576C60.7576 59.858 60.3216 60.002 59.8836 60.002C59.5416 60.002 59.1996 59.916 58.8916 59.738L51.5236 55.53C48.9116 56.842 46.0296 57.532 43.1176 57.532C34.2856 57.532 26.8776 51.39 24.8936 43.156C35.5376 41.254 43.6476 31.95 43.6476 20.768C43.6476 20.518 43.6176 20.276 43.6096 20.028C53.7296 20.292 61.8836 28.588 61.8836 38.768C61.8836 42.184 60.9656 45.494 59.2216 48.402L61.8076 57.452C62.0296 58.234 61.7596 59.074 61.1176 59.576ZM53.8376 45.214L47.8376 31.214C47.5236 30.478 46.7996 30.002 45.9996 30.002C45.1996 30.002 44.4756 30.478 44.1616 31.214L38.1616 45.214C37.7256 46.23 38.1976 47.406 39.2116 47.84C40.2196 48.274 41.4036 47.806 41.8356 46.79L43.0296 44.002H48.9636L50.1576 46.79C50.4816 47.548 51.2196 48.002 51.9956 48.002C52.2596 48.002 52.5276 47.95 52.7836 47.838C53.7996 47.404 54.2696 46.228 53.8336 45.212L53.8376 45.214ZM20.8816 39.532C17.9696 39.532 15.0876 38.842 12.4756 37.53L5.10755 41.738C4.79955 41.914 4.45755 42.002 4.11555 42.002C3.67755 42.002 3.24155 41.858 2.88155 41.576C2.24155 41.074 1.96955 40.234 2.19155 39.452L4.77755 30.402C3.03355 27.494 2.11555 24.182 2.11555 20.768C2.11755 10.418 10.5356 2 20.8816 2C31.2276 2 39.6456 10.418 39.6456 20.764C39.6456 31.11 31.2276 39.528 20.8816 39.528V39.532ZM28.4496 25.508C29.4976 23.926 30.1156 22.036 30.1156 20.002C30.1156 14.488 25.6296 10.002 20.1156 10.002C14.6016 10.002 10.1156 14.488 10.1156 20.002C10.1156 25.516 14.6016 30.002 20.1156 30.002C22.1496 30.002 24.0396 29.384 25.6216 28.336L26.7016 29.416C27.0916 29.806 27.6036 30.002 28.1156 30.002C28.6276 30.002 29.1396 29.806 29.5296 29.416C30.3116 28.634 30.3116 27.37 29.5296 26.588L28.4496 25.508ZM20.1156 14.002C16.8076 14.002 14.1156 16.694 14.1156 20.002C14.1156 23.31 16.8076 26.002 20.1156 26.002C21.0396 26.002 21.9036 25.776 22.6856 25.4L20.7016 23.416C19.9196 22.634 19.9196 21.37 20.7016 20.588C21.4836 19.806 22.7476 19.806 23.5296 20.588L25.5136 22.572C25.8876 21.79 26.1156 20.924 26.1156 20.002C26.1156 16.694 23.4236 14.002 20.1156 14.002Z" fill="#AE94FF"/>
</svg>
