<svg width="64" height="64" viewBox="0 0 64 64" fill="none" xmlns="http://www.w3.org/2000/svg">
<g clip-path="url(#clip0_909_2840)">
<path d="M31.9995 29.8584C40.2314 29.8584 46.9287 23.1611 46.9287 14.9292C46.9287 6.69727 40.2314 0 31.9995 0C23.7676 0 17.0703 6.69727 17.0703 14.9292C17.0703 23.1611 23.7676 29.8584 31.9995 29.8584ZM28.3042 13.6035L30.7925 16.0913L35.5205 9.7876C37.0103 7.80176 40.0078 10.0542 38.5205 12.0376L32.4956 20.0708C31.8877 20.8809 30.5649 21.167 29.6694 20.2715L25.6528 16.2549C23.9009 14.5034 26.5488 11.8472 28.3042 13.6035Z" fill="#AE94FF"/>
<path d="M40.0342 34.1411H23.9668C22.9316 34.1411 22.0918 34.9814 22.0918 36.0161V64H41.9092V36.0161C41.9092 34.9814 41.0693 34.1411 40.0342 34.1411Z" fill="#AE94FF"/>
<path d="M13.792 17.9414C13.792 21.75 10.7046 24.8374 6.896 24.8374C3.0874 24.8374 0 21.75 0 17.9414C0 14.1333 3.0874 11.0459 6.896 11.0459C10.7046 11.0459 13.792 14.1333 13.792 17.9414Z" fill="#AE94FF"/>
<path d="M63.999 17.9414C63.999 21.75 60.9116 24.8374 57.103 24.8374C53.2944 24.8374 50.207 21.75 50.207 17.9414C50.207 14.1333 53.2944 11.0459 57.103 11.0459C60.9116 11.0459 63.999 14.1333 63.999 17.9414Z" fill="#AE94FF"/>
<path d="M16.4663 42.0411H13.791V33.004C13.791 29.17 10.6699 26.0674 6.81982 26.1089C3.0249 26.149 0 29.3101 0 33.1065V43.0464C0 47.9639 3.98633 51.9502 8.90381 51.9502H13.791V62.125C13.791 63.1602 14.6313 64 15.666 64H18.3413V43.9161C18.3413 42.8814 17.5024 42.0411 16.4663 42.0411Z" fill="#AE94FF"/>
<path d="M47.5332 42.0411H50.2085V33.004C50.2085 29.17 53.3296 26.0674 57.1797 26.1089C60.9746 26.149 63.9995 29.3101 63.9995 33.1065V43.0464C63.9995 47.9639 60.0132 51.9502 55.0957 51.9502H50.2085V62.125C50.2085 63.1602 49.3682 64 48.3335 64H45.6582V43.9161C45.6582 42.8814 46.4971 42.0411 47.5332 42.0411Z" fill="#AE94FF"/>
</g>
<defs>
<clipPath id="clip0_909_2840">
<rect width="64" height="64" fill="white"/>
</clipPath>
</defs>
</svg>
