<svg width="44" height="44" viewBox="0 0 44 44" fill="none" xmlns="http://www.w3.org/2000/svg">
<path d="M41.061 22C41.061 19.5712 39.0898 17.6 36.661 17.6H32.6262L35.4818 14.7444C37.2022 13.024 37.2022 10.2388 35.4818 8.5228C33.7614 6.8068 30.9762 6.8024 29.2602 8.5228L26.4046 11.3784V7.3436C26.4046 4.9148 24.4334 2.9436 22.0046 2.9436C19.5758 2.9436 17.6046 4.9148 17.6046 7.3436V11.3784L14.749 8.5228C13.0286 6.8024 10.2434 6.8024 8.52744 8.5228C6.81144 10.2432 6.80704 13.0284 8.52744 14.7444L11.383 17.6H7.34824C4.91944 17.6 2.94824 19.5712 2.94824 22C2.94824 24.4288 4.91944 26.4 7.34824 26.4H11.383L8.52744 29.2556C6.80704 30.976 6.80704 33.7612 8.52744 35.4772C10.2478 37.1976 13.033 37.1976 14.749 35.4772L17.6046 32.6216V36.6564C17.6046 39.0852 19.5758 41.0564 22.0046 41.0564C24.4334 41.0564 26.4046 39.0852 26.4046 36.6564V32.6216L29.2602 35.4772C30.9806 37.1976 33.7658 37.1976 35.4818 35.4772C37.2022 33.7568 37.2022 30.9716 35.4818 29.2556L32.6262 26.4H36.661C39.0898 26.4 41.061 24.4288 41.061 22Z" fill="url(#paint0_linear_632_2873)"/>
<defs>
<linearGradient id="paint0_linear_632_2873" x1="17.2925" y1="22.0771" x2="41.5906" y2="29.883" gradientUnits="userSpaceOnUse">
<stop offset="0.37242" stop-color="#52A9FF"/>
<stop offset="0.945045" stop-color="#5D29FF"/>
</linearGradient>
</defs>
</svg>
