<svg width="44" height="44" viewBox="0 0 44 44" fill="none" xmlns="http://www.w3.org/2000/svg">
<path d="M15.4004 28.9665C15.4004 25.1883 16.9558 21.7681 19.4568 19.3059C18.109 18.6873 16.6152 18.3335 15.0339 18.3335C9.16119 18.3335 4.40039 23.0943 4.40039 28.9665C4.40039 34.8392 9.16119 39.6 15.0339 39.6C16.6152 39.6 18.1086 39.2463 19.4568 38.6276C16.9558 36.1654 15.4004 32.7453 15.4004 28.9665Z" fill="url(#paint0_linear_632_2934)"/>
<path d="M28.966 28.6C25.1878 28.6 21.7676 27.0446 19.3054 24.5423C18.6868 25.8913 18.333 27.3851 18.333 28.9665C18.333 34.8392 23.0938 39.6 28.966 39.6C34.8387 39.6 39.5995 34.8392 39.5995 28.9665C39.5995 27.3851 39.2458 25.8918 38.6271 24.5423C36.1649 27.0446 32.7448 28.6 28.966 28.6Z" fill="url(#paint1_linear_632_2934)"/>
<path d="M28.9662 4.40002C27.3848 4.40002 25.8915 4.75378 24.542 5.37242C27.0443 7.83466 28.5997 11.2548 28.5997 15.0335C28.5997 18.8118 27.0443 22.2319 24.542 24.6941C25.891 25.3128 27.3848 25.6665 28.9662 25.6665C34.8389 25.6665 39.5997 20.9057 39.5997 15.0335C39.5997 9.16082 34.8389 4.40002 28.9662 4.40002Z" fill="url(#paint2_linear_632_2934)"/>
<path d="M15.0339 15.4C18.8122 15.4 22.2323 16.9554 24.6945 19.4564C25.3132 18.1087 25.6669 16.6149 25.6669 15.0335C25.6669 9.16082 20.9061 4.40002 15.0339 4.40002C9.16119 4.40002 4.40039 9.16082 4.40039 15.0335C4.40039 16.6149 4.75415 18.1082 5.37279 19.4564C7.83503 16.9554 11.2552 15.4 15.0339 15.4Z" fill="url(#paint3_linear_632_2934)"/>
<defs>
<linearGradient id="paint0_linear_632_2934" x1="10.0671" y1="29.0098" x2="20.1357" y2="31.2998" gradientUnits="userSpaceOnUse">
<stop offset="0.37242" stop-color="#52A9FF"/>
<stop offset="0.945045" stop-color="#5D29FF"/>
</linearGradient>
<linearGradient id="paint1_linear_632_2934" x1="26.3369" y1="32.1016" x2="38.7408" y2="37.7295" gradientUnits="userSpaceOnUse">
<stop offset="0.37242" stop-color="#52A9FF"/>
<stop offset="0.945045" stop-color="#5D29FF"/>
</linearGradient>
<linearGradient id="paint2_linear_632_2934" x1="30.2092" y1="15.0763" x2="40.2786" y2="17.3668" gradientUnits="userSpaceOnUse">
<stop offset="0.37242" stop-color="#52A9FF"/>
<stop offset="0.945045" stop-color="#5D29FF"/>
</linearGradient>
<linearGradient id="paint3_linear_632_2934" x1="12.4043" y1="11.9587" x2="24.8078" y2="17.5869" gradientUnits="userSpaceOnUse">
<stop offset="0.37242" stop-color="#52A9FF"/>
<stop offset="0.945045" stop-color="#5D29FF"/>
</linearGradient>
</defs>
</svg>
